STARTFONT 2.1
COMMENT
COMMENT Converted from OpenType font "MajorMonoDisplay-Regular.ttf" by "otf2bdf 3.0".
COMMENT
FONT -FreeType-Major Mono Display-Medium-R-Normal--17-120-100-100-P-93-ISO10646-1
SIZE 12 100 100
FONTBOUNDINGBOX 47 23 -11 -4
STARTPROPERTIES 19
FOUNDRY "FreeType"
FAMILY_NAME "Major Mono Display"
WEIGHT_NAME "Medium"
SLANT "R"
SETWIDTH_NAME "Normal"
ADD_STYLE_NAME ""
PIXEL_SIZE 17
POINT_SIZE 120
RESOLUTION_X 100
RESOLUTION_Y 100
SPACING "P"
AVERAGE_WIDTH 93
CHARSET_REGISTRY "ISO10646"
CHARSET_ENCODING "1"
FONT_ASCENT 15
FONT_DESCENT 1
COPYRIGHT "Copyright 2018 The Major Mono Project Authors (https://github.com/googlefonts/majormono)"
_OTF_FONTFILE "MajorMonoDisplay-Regular.ttf"
_OTF_PSNAME "MajorMonoDisplay-Regular"
ENDPROPERTIES
CHARS 581
STARTCHAR 000D
ENCODING 13
SWIDTH 720 0
DWIDTH 12 0
BBX 0 0 0 0
BITMAP
ENDCHAR
STARTCHAR 0020
ENCODING 32
SWIDTH 720 0
DWIDTH 12 0
BBX 0 0 0 0
BITMAP
ENDCHAR
STARTCHAR 0021
ENCODING 33
SWIDTH 720 0
DWIDTH 12 0
BBX 3 12 5 0
BITMAP
E0
C0
C0
C0
C0
C0
C0
C0
00
C0
E0
C0
ENDCHAR
STARTCHAR 0022
ENCODING 34
SWIDTH 720 0
DWIDTH 12 0
BBX 6 5 3 7
BITMAP
FC
FC
DC
D8
D8
ENDCHAR
STARTCHAR 0023
ENCODING 35
SWIDTH 720 0
DWIDTH 12 0
BBX 10 12 1 0
BITMAP
0900
1100
1100
1100
7FC0
1100
1200
1200
FF80
2200
2200
2200
ENDCHAR
STARTCHAR 0024
ENCODING 36
SWIDTH 720 0
DWIDTH 12 0
BBX 8 15 2 -1
BITMAP
08
08
3E
49
89
89
88
78
0E
09
89
89
C9
3E
08
ENDCHAR
STARTCHAR 0025
ENCODING 37
SWIDTH 720 0
DWIDTH 12 0
BBX 10 12 1 0
BITMAP
7000
8800
8880
4900
3200
0400
0800
1380
2440
4440
0440
0380
ENDCHAR
STARTCHAR 0026
ENCODING 38
SWIDTH 720 0
DWIDTH 12 0
BBX 9 12 2 0
BITMAP
3800
4400
8200
8200
4600
A000
9000
8980
8500
8200
8200
7D80
ENDCHAR
STARTCHAR 0027
ENCODING 39
SWIDTH 720 0
DWIDTH 12 0
BBX 2 5 5 7
BITMAP
C0
C0
C0
C0
C0
ENDCHAR
STARTCHAR 0028
ENCODING 40
SWIDTH 720 0
DWIDTH 12 0
BBX 3 15 5 -2
BITMAP
20
40
40
80
80
80
80
80
80
80
80
80
40
40
20
ENDCHAR
STARTCHAR 0029
ENCODING 41
SWIDTH 720 0
DWIDTH 12 0
BBX 3 15 5 -2
BITMAP
80
80
40
40
20
20
20
20
20
20
20
40
40
80
80
ENDCHAR
STARTCHAR 002A
ENCODING 42
SWIDTH 720 0
DWIDTH 12 0
BBX 5 5 4 7
BITMAP
20
B8
60
B8
20
ENDCHAR
STARTCHAR 002B
ENCODING 43
SWIDTH 720 0
DWIDTH 12 0
BBX 6 7 3 3
BITMAP
10
10
10
FC
10
10
10
ENDCHAR
STARTCHAR 002C
ENCODING 44
SWIDTH 720 0
DWIDTH 12 0
BBX 3 5 5 -2
BITMAP
C0
E0
C0
40
80
ENDCHAR
STARTCHAR 002D
ENCODING 45
SWIDTH 720 0
DWIDTH 12 0
BBX 6 1 3 5
BITMAP
FC
ENDCHAR
STARTCHAR 002E
ENCODING 46
SWIDTH 720 0
DWIDTH 12 0
BBX 3 3 5 0
BITMAP
C0
E0
C0
ENDCHAR
STARTCHAR 002F
ENCODING 47
SWIDTH 720 0
DWIDTH 12 0
BBX 9 13 2 0
BITMAP
0080
0100
0200
0200
0400
0800
0800
1000
1000
2000
4000
4000
8000
ENDCHAR
STARTCHAR 0030
ENCODING 48
SWIDTH 720 0
DWIDTH 12 0
BBX 8 12 2 0
BITMAP
3C
42
81
83
85
89
91
A1
A1
41
42
3C
ENDCHAR
STARTCHAR 0031
ENCODING 49
SWIDTH 720 0
DWIDTH 12 0
BBX 8 12 2 0
BITMAP
08
10
30
C8
08
08
08
08
08
08
08
FF
ENDCHAR
STARTCHAR 0032
ENCODING 50
SWIDTH 720 0
DWIDTH 12 0
BBX 7 12 3 0
BITMAP
78
84
82
82
04
04
08
10
20
40
80
FE
ENDCHAR
STARTCHAR 0033
ENCODING 51
SWIDTH 720 0
DWIDTH 12 0
BBX 8 12 2 0
BITMAP
7F
02
04
04
0C
12
01
01
81
81
42
3C
ENDCHAR
STARTCHAR 0034
ENCODING 52
SWIDTH 720 0
DWIDTH 12 0
BBX 8 12 2 0
BITMAP
04
04
0C
14
24
24
44
84
FF
04
04
04
ENDCHAR
STARTCHAR 0035
ENCODING 53
SWIDTH 720 0
DWIDTH 12 0
BBX 8 12 2 0
BITMAP
7F
80
80
80
BC
42
01
01
01
81
42
3C
ENDCHAR
STARTCHAR 0036
ENCODING 54
SWIDTH 720 0
DWIDTH 12 0
BBX 8 12 2 0
BITMAP
04
08
10
10
3C
42
41
81
81
81
42
3C
ENDCHAR
STARTCHAR 0037
ENCODING 55
SWIDTH 720 0
DWIDTH 12 0
BBX 8 12 2 0
BITMAP
FF
01
02
02
04
04
08
08
10
10
20
20
ENDCHAR
STARTCHAR 0038
ENCODING 56
SWIDTH 720 0
DWIDTH 12 0
BBX 7 12 3 0
BITMAP
38
44
84
84
44
78
84
82
82
82
84
78
ENDCHAR
STARTCHAR 0039
ENCODING 57
SWIDTH 720 0
DWIDTH 12 0
BBX 8 12 2 0
BITMAP
3C
42
81
81
81
41
42
3C
04
08
10
30
ENDCHAR
STARTCHAR 003A
ENCODING 58
SWIDTH 720 0
DWIDTH 12 0
BBX 3 9 5 0
BITMAP
C0
E0
C0
00
00
00
C0
E0
C0
ENDCHAR
STARTCHAR 003B
ENCODING 59
SWIDTH 720 0
DWIDTH 12 0
BBX 3 11 5 -2
BITMAP
C0
E0
C0
00
00
00
C0
E0
C0
40
80
ENDCHAR
STARTCHAR 003C
ENCODING 60
SWIDTH 720 0
DWIDTH 12 0
BBX 5 9 3 1
BITMAP
08
10
20
40
80
40
20
10
08
ENDCHAR
STARTCHAR 003D
ENCODING 61
SWIDTH 720 0
DWIDTH 12 0
BBX 7 4 3 4
BITMAP
FE
00
00
FE
ENDCHAR
STARTCHAR 003E
ENCODING 62
SWIDTH 720 0
DWIDTH 12 0
BBX 5 9 4 1
BITMAP
80
40
20
10
08
10
20
40
80
ENDCHAR
STARTCHAR 003F
ENCODING 63
SWIDTH 720 0
DWIDTH 12 0
BBX 10 12 1 0
BITMAP
1E00
3F00
7F80
7380
83C0
0380
0780
0700
0600
0C00
1200
0C00
ENDCHAR
STARTCHAR 0040
ENCODING 64
SWIDTH 720 0
DWIDTH 12 0
BBX 9 13 2 -1
BITMAP
3C00
4300
8100
8E80
9180
9080
9080
9080
9180
8E80
8000
4200
3C00
ENDCHAR
STARTCHAR 0041
ENCODING 65
SWIDTH 720 0
DWIDTH 12 0
BBX 11 12 1 0
BITMAP
0400
0C00
0C00
1200
1200
2100
2100
2080
4080
4040
8040
FFE0
ENDCHAR
STARTCHAR 0042
ENCODING 66
SWIDTH 720 0
DWIDTH 12 0
BBX 9 12 2 0
BITMAP
FE00
FF00
FF00
FF00
FF00
FE00
FF00
FF80
FF80
FF80
FF00
FE00
ENDCHAR
STARTCHAR 0043
ENCODING 67
SWIDTH 720 0
DWIDTH 12 0
BBX 10 12 1 0
BITMAP
1F00
3F80
7FC0
71C0
E1C0
E000
E000
E1C0
71C0
7FC0
3F80
1F00
ENDCHAR
STARTCHAR 0044
ENCODING 68
SWIDTH 720 0
DWIDTH 12 0
BBX 9 12 2 0
BITMAP
FC00
FF00
FF00
FF80
FF80
FF80
FF80
FF80
FF80
FF00
FF00
FC00
ENDCHAR
STARTCHAR 0045
ENCODING 69
SWIDTH 720 0
DWIDTH 12 0
BBX 8 12 2 0
BITMAP
FF
FF
FF
E0
E0
FF
FF
FF
E0
FF
FF
FF
ENDCHAR
STARTCHAR 0046
ENCODING 70
SWIDTH 720 0
DWIDTH 12 0
BBX 9 12 2 0
BITMAP
FF80
8000
8000
8000
8000
FE00
FE00
FE00
8000
8000
8000
8000
ENDCHAR
STARTCHAR 0047
ENCODING 71
SWIDTH 720 0
DWIDTH 12 0
BBX 10 12 1 0
BITMAP
1F00
2080
4080
8040
8000
8000
87C0
8440
8440
4440
2480
1F00
ENDCHAR
STARTCHAR 0048
ENCODING 72
SWIDTH 720 0
DWIDTH 12 0
BBX 9 12 2 0
BITMAP
8080
8080
8080
E080
9880
8480
8280
8180
8180
8080
8080
8080
ENDCHAR
STARTCHAR 0049
ENCODING 73
SWIDTH 720 0
DWIDTH 12 0
BBX 8 12 2 0
BITMAP
FF
FF
FF
08
08
08
08
08
08
FF
FF
FF
ENDCHAR
STARTCHAR 004A
ENCODING 74
SWIDTH 720 0
DWIDTH 12 0
BBX 10 12 1 0
BITMAP
1FC0
1FC0
1FC0
01C0
01C0
01C0
01C0
E1C0
F3C0
7F80
3F80
1E00
ENDCHAR
STARTCHAR 004B
ENCODING 75
SWIDTH 720 0
DWIDTH 12 0
BBX 9 12 2 0
BITMAP
FF80
FF00
FE00
FC00
F800
F800
E800
C400
8200
8100
8100
FF80
ENDCHAR
STARTCHAR 004C
ENCODING 76
SWIDTH 720 0
DWIDTH 12 0
BBX 9 12 2 0
BITMAP
8000
8000
8000
8000
8000
8000
8000
8000
8000
FF80
FF80
FF80
ENDCHAR
STARTCHAR 004D
ENCODING 77
SWIDTH 720 0
DWIDTH 12 0
BBX 10 12 1 0
BITMAP
8040
C0C0
A0C0
A140
9140
9240
8A40
8440
8040
8040
8040
FFC0
ENDCHAR
STARTCHAR 004E
ENCODING 78
SWIDTH 720 0
DWIDTH 12 0
BBX 9 12 2 0
BITMAP
8080
C080
E080
F080
F880
FC80
FE80
FF80
FF80
FF80
FF80
FF80
ENDCHAR
STARTCHAR 004F
ENCODING 79
SWIDTH 720 0
DWIDTH 12 0
BBX 10 12 1 0
BITMAP
1E00
3F80
7F80
F1C0
E1C0
E1C0
E1C0
E1C0
F3C0
7F80
3F80
1E00
ENDCHAR
STARTCHAR 0050
ENCODING 80
SWIDTH 720 0
DWIDTH 12 0
BBX 9 12 2 0
BITMAP
FE00
FF80
FF80
FF80
FF80
FF80
FF80
FF00
E000
E000
E000
E000
ENDCHAR
STARTCHAR 0051
ENCODING 81
SWIDTH 720 0
DWIDTH 12 0
BBX 11 13 1 -1
BITMAP
1E00
3F80
7F80
F3C0
E1C0
E1C0
E1C0
E1C0
F3C0
7FC0
3FE0
1EC0
0040
ENDCHAR
STARTCHAR 0052
ENCODING 82
SWIDTH 720 0
DWIDTH 12 0
BBX 9 12 2 0
BITMAP
FE00
C100
A080
A080
9080
8880
8900
FE00
8200
8200
8100
FF80
ENDCHAR
STARTCHAR 0053
ENCODING 83
SWIDTH 720 0
DWIDTH 12 0
BBX 10 12 1 0
BITMAP
1F00
7F80
7FC0
F1C0
7000
7F00
3FC0
E3C0
E1C0
7FC0
7F80
1F00
ENDCHAR
STARTCHAR 0054
ENCODING 84
SWIDTH 720 0
DWIDTH 12 0
BBX 10 12 1 0
BITMAP
FFC0
FFC0
FFC0
0400
0400
0400
0400
0400
0400
0400
0400
0400
ENDCHAR
STARTCHAR 0055
ENCODING 85
SWIDTH 720 0
DWIDTH 12 0
BBX 10 12 1 0
BITMAP
FFC0
FFC0
FFC0
FFC0
FFC0
FFC0
FFC0
FFC0
7FC0
7F80
3F80
1E00
ENDCHAR
STARTCHAR 0056
ENCODING 86
SWIDTH 720 0
DWIDTH 12 0
BBX 11 12 1 0
BITMAP
FFE0
8040
4040
4080
2080
2100
1100
1200
1200
0C00
0C00
0400
ENDCHAR
STARTCHAR 0057
ENCODING 87
SWIDTH 720 0
DWIDTH 12 0
BBX 11 12 1 0
BITMAP
8FE0
8840
8840
8440
4440
4C80
4C80
4A80
2A80
3300
3100
1100
ENDCHAR
STARTCHAR 0058
ENCODING 88
SWIDTH 720 0
DWIDTH 12 0
BBX 10 12 1 0
BITMAP
FFC0
4080
2100
1100
0A00
0C00
0C00
0A00
1100
2100
4080
FFC0
ENDCHAR
STARTCHAR 0059
ENCODING 89
SWIDTH 720 0
DWIDTH 12 0
BBX 10 12 1 0
BITMAP
FFC0
7F80
3F00
1F00
1E00
0E00
0C00
0400
0400
0400
0400
0400
ENDCHAR
STARTCHAR 005A
ENCODING 90
SWIDTH 720 0
DWIDTH 12 0
BBX 8 12 2 0
BITMAP
FF
01
03
05
05
09
11
11
21
41
81
FF
ENDCHAR
STARTCHAR 005B
ENCODING 91
SWIDTH 720 0
DWIDTH 12 0
BBX 4 15 4 -2
BITMAP
F0
80
80
80
80
80
80
80
80
80
80
80
80
80
F0
ENDCHAR
STARTCHAR 005C
ENCODING 92
SWIDTH 720 0
DWIDTH 12 0
BBX 9 13 2 0
BITMAP
8000
8000
4000
2000
2000
1000
1000
0800
0400
0400
0200
0100
0180
ENDCHAR
STARTCHAR 005D
ENCODING 93
SWIDTH 720 0
DWIDTH 12 0
BBX 4 15 4 -2
BITMAP
F0
10
10
10
10
10
10
10
10
10
10
10
10
10
F0
ENDCHAR
STARTCHAR 005E
ENCODING 94
SWIDTH 720 0
DWIDTH 12 0
BBX 5 3 4 12
BITMAP
60
90
88
ENDCHAR
STARTCHAR 005F
ENCODING 95
SWIDTH 720 0
DWIDTH 12 0
BBX 9 1 2 -1
BITMAP
FF80
ENDCHAR
STARTCHAR 0060
ENCODING 96
SWIDTH 720 0
DWIDTH 12 0
BBX 3 3 5 12
BITMAP
80
40
20
ENDCHAR
STARTCHAR 0061
ENCODING 97
SWIDTH 720 0
DWIDTH 12 0
BBX 10 12 1 0
BITMAP
0400
0C00
0A00
1200
1200
2100
2100
3F00
4080
4080
8040
8040
ENDCHAR
STARTCHAR 0062
ENCODING 98
SWIDTH 720 0
DWIDTH 12 0
BBX 9 12 2 0
BITMAP
FE00
8100
8100
8100
8100
8100
FE00
8100
8080
8080
8100
FE00
ENDCHAR
STARTCHAR 0063
ENCODING 99
SWIDTH 720 0
DWIDTH 12 0
BBX 9 12 2 0
BITMAP
3E00
4100
8080
8080
8000
8000
8000
8000
8080
8080
4100
3E00
ENDCHAR
STARTCHAR 0064
ENCODING 100
SWIDTH 720 0
DWIDTH 12 0
BBX 9 12 2 0
BITMAP
FC00
8200
8100
8080
8080
8080
8080
8080
8080
8100
8200
FC00
ENDCHAR
STARTCHAR 0065
ENCODING 101
SWIDTH 720 0
DWIDTH 12 0
BBX 8 12 2 0
BITMAP
FF
80
80
80
80
FE
80
80
80
80
80
FF
ENDCHAR
STARTCHAR 0066
ENCODING 102
SWIDTH 720 0
DWIDTH 12 0
BBX 9 12 2 0
BITMAP
FF80
8000
8000
8000
8000
8000
FE00
8000
8000
8000
8000
8000
ENDCHAR
STARTCHAR 0067
ENCODING 103
SWIDTH 720 0
DWIDTH 12 0
BBX 10 12 1 0
BITMAP
1F00
2080
4080
8040
8000
8000
87C0
8040
8040
4040
20C0
1F40
ENDCHAR
STARTCHAR 0068
ENCODING 104
SWIDTH 720 0
DWIDTH 12 0
BBX 9 12 2 0
BITMAP
8080
8080
8080
8080
8080
8080
FF80
8080
8080
8080
8080
8080
ENDCHAR
STARTCHAR 0069
ENCODING 105
SWIDTH 720 0
DWIDTH 12 0
BBX 8 12 2 0
BITMAP
FF
08
08
08
08
08
08
08
08
08
08
FF
ENDCHAR
STARTCHAR 006A
ENCODING 106
SWIDTH 720 0
DWIDTH 12 0
BBX 10 12 1 0
BITMAP
0FC0
0040
0040
0040
0040
0040
0040
0040
8040
4080
6100
1E00
ENDCHAR
STARTCHAR 006B
ENCODING 107
SWIDTH 720 0
DWIDTH 12 0
BBX 9 12 2 0
BITMAP
8080
8100
8200
8400
8800
9800
A800
C400
8200
8100
8100
8080
ENDCHAR
STARTCHAR 006C
ENCODING 108
SWIDTH 720 0
DWIDTH 12 0
BBX 8 12 3 0
BITMAP
80
80
80
80
80
80
80
80
80
80
80
FF
ENDCHAR
STARTCHAR 006D
ENCODING 109
SWIDTH 720 0
DWIDTH 12 0
BBX 10 12 1 0
BITMAP
8040
C0C0
A0C0
A140
9140
9240
8A40
8440
8040
8040
8040
8040
ENDCHAR
STARTCHAR 006E
ENCODING 110
SWIDTH 720 0
DWIDTH 12 0
BBX 9 12 2 0
BITMAP
8080
C080
A080
9080
8880
8480
8280
8180
8080
8080
8080
8080
ENDCHAR
STARTCHAR 006F
ENCODING 111
SWIDTH 720 0
DWIDTH 12 0
BBX 10 12 1 0
BITMAP
1F00
2080
4040
8040
8040
8040
8040
8040
8040
4040
2080
1F00
ENDCHAR
STARTCHAR 0070
ENCODING 112
SWIDTH 720 0
DWIDTH 12 0
BBX 9 12 2 0
BITMAP
FE00
8100
8080
8080
8080
8080
8080
8100
FE00
8000
8000
8000
ENDCHAR
STARTCHAR 0071
ENCODING 113
SWIDTH 720 0
DWIDTH 12 0
BBX 10 12 1 0
BITMAP
1F00
2080
4080
8040
8040
8040
8040
8040
8240
4180
2080
1F40
ENDCHAR
STARTCHAR 0072
ENCODING 114
SWIDTH 720 0
DWIDTH 12 0
BBX 9 12 2 0
BITMAP
FE00
8100
8080
8080
8080
8080
8100
FE00
8200
8200
8100
8080
ENDCHAR
STARTCHAR 0073
ENCODING 115
SWIDTH 720 0
DWIDTH 12 0
BBX 9 12 2 0
BITMAP
3E00
4100
8100
8080
C000
3800
0600
0100
8080
8080
4100
3E00
ENDCHAR
STARTCHAR 0074
ENCODING 116
SWIDTH 720 0
DWIDTH 12 0
BBX 10 12 1 0
BITMAP
FFC0
0400
0400
0400
0400
0400
0400
0400
0400
0400
0400
0400
ENDCHAR
STARTCHAR 0075
ENCODING 117
SWIDTH 720 0
DWIDTH 12 0
BBX 10 12 1 0
BITMAP
8040
8040
8040
8040
8040
8040
8040
8040
8040
4080
2080
1F00
ENDCHAR
STARTCHAR 0076
ENCODING 118
SWIDTH 720 0
DWIDTH 12 0
BBX 10 12 1 0
BITMAP
8040
8040
4080
4080
2080
2100
2100
1200
1200
0A00
0C00
0400
ENDCHAR
STARTCHAR 0077
ENCODING 119
SWIDTH 720 0
DWIDTH 12 0
BBX 11 12 1 0
BITMAP
8820
8840
8840
8440
4440
4480
4C80
4A80
2A80
3300
3100
1100
ENDCHAR
STARTCHAR 0078
ENCODING 120
SWIDTH 720 0
DWIDTH 12 0
BBX 10 12 1 0
BITMAP
C040
4080
2100
1100
0A00
0C00
0C00
0A00
1200
2100
4080
C040
ENDCHAR
STARTCHAR 0079
ENCODING 121
SWIDTH 720 0
DWIDTH 12 0
BBX 10 12 1 0
BITMAP
C040
4080
2080
2100
1200
0A00
0C00
0400
0400
0400
0400
0400
ENDCHAR
STARTCHAR 007A
ENCODING 122
SWIDTH 720 0
DWIDTH 12 0
BBX 8 12 2 0
BITMAP
FF
01
02
04
04
08
10
10
20
40
80
FF
ENDCHAR
STARTCHAR 007B
ENCODING 123
SWIDTH 720 0
DWIDTH 12 0
BBX 4 15 4 0
BITMAP
10
20
20
20
20
20
40
80
40
20
20
20
20
20
10
ENDCHAR
STARTCHAR 007C
ENCODING 124
SWIDTH 720 0
DWIDTH 12 0
BBX 1 15 6 -2
BITMAP
80
80
80
80
80
80
80
80
80
80
80
80
80
80
80
ENDCHAR
STARTCHAR 007D
ENCODING 125
SWIDTH 720 0
DWIDTH 12 0
BBX 4 15 4 0
BITMAP
80
40
20
20
20
20
20
10
20
20
20
20
20
40
80
ENDCHAR
STARTCHAR 007E
ENCODING 126
SWIDTH 720 0
DWIDTH 12 0
BBX 9 2 2 5
BITMAP
7180
8F00
ENDCHAR
STARTCHAR 00A0
ENCODING 160
SWIDTH 720 0
DWIDTH 12 0
BBX 0 0 0 0
BITMAP
ENDCHAR
STARTCHAR 00A1
ENCODING 161
SWIDTH 720 0
DWIDTH 12 0
BBX 3 12 5 0
BITMAP
C0
E0
C0
00
C0
C0
C0
C0
C0
C0
C0
E0
ENDCHAR
STARTCHAR 00A2
ENCODING 162
SWIDTH 720 0
DWIDTH 12 0
BBX 8 12 2 0
BITMAP
08
08
3E
49
89
88
88
89
49
2E
18
08
ENDCHAR
STARTCHAR 00A3
ENCODING 163
SWIDTH 720 0
DWIDTH 12 0
BBX 10 12 1 0
BITMAP
0F00
1080
2040
2000
2000
FE00
2000
2000
2000
2040
2040
FF80
ENDCHAR
STARTCHAR 00A4
ENCODING 164
SWIDTH 720 0
DWIDTH 12 0
BBX 6 6 3 3
BITMAP
BC
44
84
84
44
BC
ENDCHAR
STARTCHAR 00A5
ENCODING 165
SWIDTH 720 0
DWIDTH 12 0
BBX 10 12 1 0
BITMAP
C040
4080
2100
1100
1200
0C00
3F80
0400
0400
3F80
0400
0400
ENDCHAR
STARTCHAR 00A6
ENCODING 166
SWIDTH 720 0
DWIDTH 12 0
BBX 1 15 6 -2
BITMAP
80
80
80
80
80
80
00
00
00
80
80
80
80
80
80
ENDCHAR
STARTCHAR 00A7
ENCODING 167
SWIDTH 720 0
DWIDTH 12 0
BBX 6 14 3 -2
BITMAP
78
84
84
80
70
88
84
84
64
18
04
84
84
78
ENDCHAR
STARTCHAR 00A8
ENCODING 168
SWIDTH 720 0
DWIDTH 12 0
BBX 6 3 3 13
BITMAP
CC
B4
CC
ENDCHAR
STARTCHAR 00A9
ENCODING 169
SWIDTH 720 0
DWIDTH 12 0
BBX 9 9 2 1
BITMAP
3C00
4200
9900
A480
A080
A480
9900
4200
3C00
ENDCHAR
STARTCHAR 00AA
ENCODING 170
SWIDTH 720 0
DWIDTH 12 0
BBX 6 6 3 6
BITMAP
3C
44
84
84
44
3C
ENDCHAR
STARTCHAR 00AB
ENCODING 171
SWIDTH 720 0
DWIDTH 12 0
BBX 6 7 3 2
BITMAP
24
48
90
90
90
48
24
ENDCHAR
STARTCHAR 00AC
ENCODING 172
SWIDTH 720 0
DWIDTH 12 0
BBX 6 2 3 5
BITMAP
FC
04
ENDCHAR
STARTCHAR 00AD
ENCODING 173
SWIDTH 720 0
DWIDTH 12 0
BBX 6 1 3 5
BITMAP
FC
ENDCHAR
STARTCHAR 00AE
ENCODING 174
SWIDTH 720 0
DWIDTH 12 0
BBX 9 9 2 1
BITMAP
3C00
4200
B900
A480
A480
B880
A500
4200
3C00
ENDCHAR
STARTCHAR 00AF
ENCODING 175
SWIDTH 720 0
DWIDTH 12 0
BBX 5 1 4 13
BITMAP
F8
ENDCHAR
STARTCHAR 00B0
ENCODING 176
SWIDTH 720 0
DWIDTH 12 0
BBX 5 5 4 7
BITMAP
60
90
88
90
60
ENDCHAR
STARTCHAR 00B1
ENCODING 177
SWIDTH 720 0
DWIDTH 12 0
BBX 6 9 3 0
BITMAP
10
10
10
FC
10
10
10
00
FC
ENDCHAR
STARTCHAR 00B2
ENCODING 178
SWIDTH 720 0
DWIDTH 12 0
BBX 4 6 4 6
BITMAP
60
90
10
20
40
F0
ENDCHAR
STARTCHAR 00B3
ENCODING 179
SWIDTH 720 0
DWIDTH 12 0
BBX 4 6 4 6
BITMAP
F0
20
20
10
90
60
ENDCHAR
STARTCHAR 00B4
ENCODING 180
SWIDTH 720 0
DWIDTH 12 0
BBX 3 3 5 12
BITMAP
60
80
80
ENDCHAR
STARTCHAR 00B5
ENCODING 181
SWIDTH 720 0
DWIDTH 12 0
BBX 8 11 2 -2
BITMAP
81
81
81
81
81
81
81
C3
BD
80
80
ENDCHAR
STARTCHAR 00B6
ENCODING 182
SWIDTH 720 0
DWIDTH 12 0
BBX 7 14 2 -2
BITMAP
3E
7A
FA
FA
FA
FA
7A
0A
0A
0A
0A
0A
0A
0A
ENDCHAR
STARTCHAR 00B7
ENCODING 183
SWIDTH 720 0
DWIDTH 12 0
BBX 3 3 5 4
BITMAP
C0
E0
C0
ENDCHAR
STARTCHAR 00B8
ENCODING 184
SWIDTH 720 0
DWIDTH 12 0
BBX 2 3 6 -3
BITMAP
40
80
80
ENDCHAR
STARTCHAR 00B9
ENCODING 185
SWIDTH 720 0
DWIDTH 12 0
BBX 4 6 4 6
BITMAP
40
A0
20
20
20
F0
ENDCHAR
STARTCHAR 00BA
ENCODING 186
SWIDTH 720 0
DWIDTH 12 0
BBX 6 6 3 6
BITMAP
78
84
84
84
84
78
ENDCHAR
STARTCHAR 00BB
ENCODING 187
SWIDTH 720 0
DWIDTH 12 0
BBX 7 7 3 2
BITMAP
D8
48
24
12
24
48
90
ENDCHAR
STARTCHAR 00BC
ENCODING 188
SWIDTH 720 0
DWIDTH 12 0
BBX 10 11 1 0
BITMAP
4000
C080
4080
4100
4200
F480
0980
1180
2280
43C0
0080
ENDCHAR
STARTCHAR 00BD
ENCODING 189
SWIDTH 720 0
DWIDTH 12 0
BBX 10 12 1 0
BITMAP
4000
C000
4080
4100
4200
F580
0A40
1040
2080
4100
0100
03C0
ENDCHAR
STARTCHAR 00BE
ENCODING 190
SWIDTH 720 0
DWIDTH 12 0
BBX 10 12 1 0
BITMAP
F000
2000
2080
5080
9100
9200
6480
0980
1180
2280
43C0
0080
ENDCHAR
STARTCHAR 00BF
ENCODING 191
SWIDTH 720 0
DWIDTH 12 0
BBX 10 12 1 0
BITMAP
0C00
1200
0C00
1800
3800
7800
7000
F3C0
7380
7F80
3F00
1E00
ENDCHAR
STARTCHAR 00C0
ENCODING 192
SWIDTH 720 0
DWIDTH 12 0
BBX 11 15 1 0
BITMAP
1800
0400
0200
0400
0C00
0C00
1200
1200
2100
2100
2080
4080
4040
8040
FFE0
ENDCHAR
STARTCHAR 00C1
ENCODING 193
SWIDTH 720 0
DWIDTH 12 0
BBX 11 15 1 0
BITMAP
0200
0C00
0800
0400
0C00
0C00
1200
1200
2100
2100
2080
4080
4040
8040
FFE0
ENDCHAR
STARTCHAR 00C2
ENCODING 194
SWIDTH 720 0
DWIDTH 12 0
BBX 11 15 1 0
BITMAP
0C00
1200
1100
0400
0C00
0C00
1200
1200
2100
2100
2080
4080
4040
8040
FFE0
ENDCHAR
STARTCHAR 00C3
ENCODING 195
SWIDTH 720 0
DWIDTH 12 0
BBX 11 15 1 0
BITMAP
1900
2600
0000
0400
0C00
0C00
1200
1200
2100
2100
2080
4080
4040
8040
FFE0
ENDCHAR
STARTCHAR 00C4
ENCODING 196
SWIDTH 720 0
DWIDTH 12 0
BBX 11 16 1 0
BITMAP
3300
2C80
3300
0000
0400
0C00
0C00
1200
1200
2100
2100
2080
4080
4040
8040
FFE0
ENDCHAR
STARTCHAR 00C5
ENCODING 197
SWIDTH 720 0
DWIDTH 12 0
BBX 11 16 1 0
BITMAP
0C00
1200
1200
0C00
0400
0C00
0C00
1200
1200
2100
2100
2080
4080
4040
8040
FFE0
ENDCHAR
STARTCHAR 00C6
ENCODING 198
SWIDTH 720 0
DWIDTH 12 0
BBX 12 12 0 0
BITMAP
07F0
0A00
0A00
0A00
1200
13E0
2200
3E00
4200
4200
4200
83F0
ENDCHAR
STARTCHAR 00C7
ENCODING 199
SWIDTH 720 0
DWIDTH 12 0
BBX 10 15 1 -3
BITMAP
1F00
3F80
7FC0
71C0
E1C0
E000
E000
E1C0
71C0
7FC0
3F80
1F00
0400
0400
0800
ENDCHAR
STARTCHAR 00C8
ENCODING 200
SWIDTH 720 0
DWIDTH 12 0
BBX 8 15 2 0
BITMAP
30
08
04
FF
FF
FF
E0
E0
FF
FF
FF
E0
FF
FF
FF
ENDCHAR
STARTCHAR 00C9
ENCODING 201
SWIDTH 720 0
DWIDTH 12 0
BBX 8 15 2 0
BITMAP
04
18
10
FF
FF
FF
E0
E0
FF
FF
FF
E0
FF
FF
FF
ENDCHAR
STARTCHAR 00CA
ENCODING 202
SWIDTH 720 0
DWIDTH 12 0
BBX 8 15 2 0
BITMAP
18
24
22
FF
FF
FF
E0
E0
FF
FF
FF
E0
FF
FF
FF
ENDCHAR
STARTCHAR 00CB
ENCODING 203
SWIDTH 720 0
DWIDTH 12 0
BBX 8 16 2 0
BITMAP
66
59
66
00
FF
FF
FF
E0
E0
FF
FF
FF
E0
FF
FF
FF
ENDCHAR
STARTCHAR 00CC
ENCODING 204
SWIDTH 720 0
DWIDTH 12 0
BBX 8 15 2 0
BITMAP
30
08
04
FF
FF
FF
08
08
08
08
08
08
FF
FF
FF
ENDCHAR
STARTCHAR 00CD
ENCODING 205
SWIDTH 720 0
DWIDTH 12 0
BBX 8 15 2 0
BITMAP
04
18
10
FF
FF
FF
08
08
08
08
08
08
FF
FF
FF
ENDCHAR
STARTCHAR 00CE
ENCODING 206
SWIDTH 720 0
DWIDTH 12 0
BBX 8 15 2 0
BITMAP
18
24
22
FF
FF
FF
08
08
08
08
08
08
FF
FF
FF
ENDCHAR
STARTCHAR 00CF
ENCODING 207
SWIDTH 720 0
DWIDTH 12 0
BBX 8 16 2 0
BITMAP
66
59
66
00
FF
FF
FF
08
08
08
08
08
08
FF
FF
FF
ENDCHAR
STARTCHAR 00D0
ENCODING 208
SWIDTH 720 0
DWIDTH 12 0
BBX 11 12 0 0
BITMAP
3F00
3FC0
3FC0
3FE0
3FE0
3FE0
FFE0
3FE0
3FE0
3FC0
3FC0
3F00
ENDCHAR
STARTCHAR 00D1
ENCODING 209
SWIDTH 720 0
DWIDTH 12 0
BBX 9 15 2 0
BITMAP
3200
4E00
0000
8080
C080
E080
F080
F880
FC80
FE80
FF80
FF80
FF80
FF80
FF80
ENDCHAR
STARTCHAR 00D2
ENCODING 210
SWIDTH 720 0
DWIDTH 12 0
BBX 10 15 1 0
BITMAP
1800
0400
0200
1E00
3F80
7F80
F1C0
E1C0
E1C0
E1C0
E1C0
F3C0
7F80
3F80
1E00
ENDCHAR
STARTCHAR 00D3
ENCODING 211
SWIDTH 720 0
DWIDTH 12 0
BBX 10 15 1 0
BITMAP
0200
0C00
0800
1E00
3F80
7F80
F1C0
E1C0
E1C0
E1C0
E1C0
F3C0
7F80
3F80
1E00
ENDCHAR
STARTCHAR 00D4
ENCODING 212
SWIDTH 720 0
DWIDTH 12 0
BBX 10 15 1 0
BITMAP
0C00
1200
1100
1E00
3F80
7F80
F1C0
E1C0
E1C0
E1C0
E1C0
F3C0
7F80
3F80
1E00
ENDCHAR
STARTCHAR 00D5
ENCODING 213
SWIDTH 720 0
DWIDTH 12 0
BBX 10 15 1 0
BITMAP
1900
2600
0000
1E00
3F80
7F80
F1C0
E1C0
E1C0
E1C0
E1C0
F3C0
7F80
3F80
1E00
ENDCHAR
STARTCHAR 00D6
ENCODING 214
SWIDTH 720 0
DWIDTH 12 0
BBX 10 16 1 0
BITMAP
3300
2C80
3300
0000
1E00
3F80
7F80
F1C0
E1C0
E1C0
E1C0
E1C0
F3C0
7F80
3F80
1E00
ENDCHAR
STARTCHAR 00D7
ENCODING 215
SWIDTH 720 0
DWIDTH 12 0
BBX 6 5 3 3
BITMAP
C4
28
10
28
C4
ENDCHAR
STARTCHAR 00D8
ENCODING 216
SWIDTH 720 0
DWIDTH 12 0
BBX 10 14 1 -1
BITMAP
0040
1E80
3F80
7F80
F3C0
E3C0
E5C0
E9C0
E9C0
F1C0
7F80
3F80
5E00
4000
ENDCHAR
STARTCHAR 00D9
ENCODING 217
SWIDTH 720 0
DWIDTH 12 0
BBX 10 15 1 0
BITMAP
1800
0400
0200
FFC0
FFC0
FFC0
FFC0
FFC0
FFC0
FFC0
FFC0
7FC0
7F80
3F80
1E00
ENDCHAR
STARTCHAR 00DA
ENCODING 218
SWIDTH 720 0
DWIDTH 12 0
BBX 10 15 1 0
BITMAP
0200
0C00
0800
FFC0
FFC0
FFC0
FFC0
FFC0
FFC0
FFC0
FFC0
7FC0
7F80
3F80
1E00
ENDCHAR
STARTCHAR 00DB
ENCODING 219
SWIDTH 720 0
DWIDTH 12 0
BBX 10 15 1 0
BITMAP
0C00
1200
1100
FFC0
FFC0
FFC0
FFC0
FFC0
FFC0
FFC0
FFC0
7FC0
7F80
3F80
1E00
ENDCHAR
STARTCHAR 00DC
ENCODING 220
SWIDTH 720 0
DWIDTH 12 0
BBX 10 16 1 0
BITMAP
3300
2C80
3300
0000
FFC0
FFC0
FFC0
FFC0
FFC0
FFC0
FFC0
FFC0
7FC0
7F80
3F80
1E00
ENDCHAR
STARTCHAR 00DD
ENCODING 221
SWIDTH 720 0
DWIDTH 12 0
BBX 10 15 1 0
BITMAP
0200
0C00
0800
FFC0
7F80
3F00
1F00
1E00
0E00
0C00
0400
0400
0400
0400
0400
ENDCHAR
STARTCHAR 00DE
ENCODING 222
SWIDTH 720 0
DWIDTH 12 0
BBX 9 12 2 0
BITMAP
8000
8000
FE00
8100
8080
8080
8080
8080
8100
FE00
8000
8000
ENDCHAR
STARTCHAR 00DF
ENCODING 223
SWIDTH 720 0
DWIDTH 12 0
BBX 9 12 2 0
BITMAP
FF00
8100
8200
8400
8E00
8100
8080
8080
8080
8080
8100
9E00
ENDCHAR
STARTCHAR 00E0
ENCODING 224
SWIDTH 720 0
DWIDTH 12 0
BBX 10 15 1 0
BITMAP
1800
0400
0200
0400
0C00
0A00
1200
1200
2100
2100
3F00
4080
4080
8040
8040
ENDCHAR
STARTCHAR 00E1
ENCODING 225
SWIDTH 720 0
DWIDTH 12 0
BBX 10 15 1 0
BITMAP
0200
0C00
0800
0400
0C00
0A00
1200
1200
2100
2100
3F00
4080
4080
8040
8040
ENDCHAR
STARTCHAR 00E2
ENCODING 226
SWIDTH 720 0
DWIDTH 12 0
BBX 10 15 1 0
BITMAP
0C00
1200
1100
0400
0C00
0A00
1200
1200
2100
2100
3F00
4080
4080
8040
8040
ENDCHAR
STARTCHAR 00E3
ENCODING 227
SWIDTH 720 0
DWIDTH 12 0
BBX 10 15 1 0
BITMAP
1900
2600
0000
0400
0C00
0A00
1200
1200
2100
2100
3F00
4080
4080
8040
8040
ENDCHAR
STARTCHAR 00E4
ENCODING 228
SWIDTH 720 0
DWIDTH 12 0
BBX 10 16 1 0
BITMAP
3300
2C80
3300
0000
0400
0C00
0A00
1200
1200
2100
2100
3F00
4080
4080
8040
8040
ENDCHAR
STARTCHAR 00E5
ENCODING 229
SWIDTH 720 0
DWIDTH 12 0
BBX 10 16 1 0
BITMAP
0C00
1200
1200
0C00
0400
0C00
0A00
1200
1200
2100
2100
3F00
4080
4080
8040
8040
ENDCHAR
STARTCHAR 00E6
ENCODING 230
SWIDTH 720 0
DWIDTH 12 0
BBX 12 12 0 0
BITMAP
07F0
0A00
0A00
1200
1200
13E0
2200
3E00
4200
4200
4200
83F0
ENDCHAR
STARTCHAR 00E7
ENCODING 231
SWIDTH 720 0
DWIDTH 12 0
BBX 9 15 2 -3
BITMAP
3E00
4100
8080
8080
8000
8000
8000
8000
8080
8080
4100
3E00
0800
0800
1000
ENDCHAR
STARTCHAR 00E8
ENCODING 232
SWIDTH 720 0
DWIDTH 12 0
BBX 8 15 2 0
BITMAP
10
08
04
FF
80
80
80
80
FE
80
80
80
80
80
FF
ENDCHAR
STARTCHAR 00E9
ENCODING 233
SWIDTH 720 0
DWIDTH 12 0
BBX 8 15 2 0
BITMAP
04
08
10
FF
80
80
80
80
FE
80
80
80
80
80
FF
ENDCHAR
STARTCHAR 00EA
ENCODING 234
SWIDTH 720 0
DWIDTH 12 0
BBX 8 15 2 0
BITMAP
18
24
22
FF
80
80
80
80
FE
80
80
80
80
80
FF
ENDCHAR
STARTCHAR 00EB
ENCODING 235
SWIDTH 720 0
DWIDTH 12 0
BBX 8 16 2 0
BITMAP
66
59
66
00
FF
80
80
80
80
FE
80
80
80
80
80
FF
ENDCHAR
STARTCHAR 00EC
ENCODING 236
SWIDTH 720 0
DWIDTH 12 0
BBX 8 15 2 0
BITMAP
30
08
04
FF
08
08
08
08
08
08
08
08
08
08
FF
ENDCHAR
STARTCHAR 00ED
ENCODING 237
SWIDTH 720 0
DWIDTH 12 0
BBX 8 15 2 0
BITMAP
04
18
10
FF
08
08
08
08
08
08
08
08
08
08
FF
ENDCHAR
STARTCHAR 00EE
ENCODING 238
SWIDTH 720 0
DWIDTH 12 0
BBX 8 15 2 0
BITMAP
18
24
22
FF
08
08
08
08
08
08
08
08
08
08
FF
ENDCHAR
STARTCHAR 00EF
ENCODING 239
SWIDTH 720 0
DWIDTH 12 0
BBX 8 16 2 0
BITMAP
66
59
66
00
FF
08
08
08
08
08
08
08
08
08
08
FF
ENDCHAR
STARTCHAR 00F0
ENCODING 240
SWIDTH 720 0
DWIDTH 12 0
BBX 11 12 0 0
BITMAP
3F00
2080
2040
2020
2020
2020
FC20
2020
2020
2040
2080
3F00
ENDCHAR
STARTCHAR 00F1
ENCODING 241
SWIDTH 720 0
DWIDTH 12 0
BBX 9 15 2 0
BITMAP
3200
4E00
0000
8080
C080
A080
9080
8880
8480
8280
8180
8080
8080
8080
8080
ENDCHAR
STARTCHAR 00F2
ENCODING 242
SWIDTH 720 0
DWIDTH 12 0
BBX 10 15 1 0
BITMAP
1800
0400
0200
1F00
2080
4040
8040
8040
8040
8040
8040
8040
4040
2080
1F00
ENDCHAR
STARTCHAR 00F3
ENCODING 243
SWIDTH 720 0
DWIDTH 12 0
BBX 10 15 1 0
BITMAP
0200
0C00
0800
1F00
2080
4040
8040
8040
8040
8040
8040
8040
4040
2080
1F00
ENDCHAR
STARTCHAR 00F4
ENCODING 244
SWIDTH 720 0
DWIDTH 12 0
BBX 10 15 1 0
BITMAP
0C00
1200
1100
1F00
2080
4040
8040
8040
8040
8040
8040
8040
4040
2080
1F00
ENDCHAR
STARTCHAR 00F5
ENCODING 245
SWIDTH 720 0
DWIDTH 12 0
BBX 10 15 1 0
BITMAP
1900
2600
0000
1F00
2080
4040
8040
8040
8040
8040
8040
8040
4040
2080
1F00
ENDCHAR
STARTCHAR 00F6
ENCODING 246
SWIDTH 720 0
DWIDTH 12 0
BBX 10 16 1 0
BITMAP
3300
2C80
3300
0000
1F00
2080
4040
8040
8040
8040
8040
8040
8040
4040
2080
1F00
ENDCHAR
STARTCHAR 00F7
ENCODING 247
SWIDTH 720 0
DWIDTH 12 0
BBX 7 9 3 2
BITMAP
30
28
28
30
FE
00
30
28
30
ENDCHAR
STARTCHAR 00F8
ENCODING 248
SWIDTH 720 0
DWIDTH 12 0
BBX 10 14 1 -1
BITMAP
0040
1E80
2180
4180
8240
8240
8440
8840
8840
9040
6040
2080
5F00
4000
ENDCHAR
STARTCHAR 00F9
ENCODING 249
SWIDTH 720 0
DWIDTH 12 0
BBX 10 15 1 0
BITMAP
1800
0400
0200
8040
8040
8040
8040
8040
8040
8040
8040
8040
4080
2080
1F00
ENDCHAR
STARTCHAR 00FA
ENCODING 250
SWIDTH 720 0
DWIDTH 12 0
BBX 10 15 1 0
BITMAP
0200
0C00
0800
8040
8040
8040
8040
8040
8040
8040
8040
8040
4080
2080
1F00
ENDCHAR
STARTCHAR 00FB
ENCODING 251
SWIDTH 720 0
DWIDTH 12 0
BBX 10 15 1 0
BITMAP
0C00
1200
1100
8040
8040
8040
8040
8040
8040
8040
8040
8040
4080
2080
1F00
ENDCHAR
STARTCHAR 00FC
ENCODING 252
SWIDTH 720 0
DWIDTH 12 0
BBX 10 16 1 0
BITMAP
3300
2C80
3300
0000
8040
8040
8040
8040
8040
8040
8040
8040
8040
4080
2080
1F00
ENDCHAR
STARTCHAR 00FD
ENCODING 253
SWIDTH 720 0
DWIDTH 12 0
BBX 10 15 1 0
BITMAP
0200
0C00
0800
C040
4080
2080
2100
1200
0A00
0C00
0400
0400
0400
0400
0400
ENDCHAR
STARTCHAR 00FE
ENCODING 254
SWIDTH 720 0
DWIDTH 12 0
BBX 9 12 2 0
BITMAP
8000
8000
FE00
8100
8080
8080
8080
8080
8100
FE00
8000
8000
ENDCHAR
STARTCHAR 00FF
ENCODING 255
SWIDTH 720 0
DWIDTH 12 0
BBX 10 16 1 0
BITMAP
3300
2C80
3300
0000
C040
4080
2080
2100
1200
0A00
0C00
0400
0400
0400
0400
0400
ENDCHAR
STARTCHAR 0100
ENCODING 256
SWIDTH 720 0
DWIDTH 12 0
BBX 11 14 1 0
BITMAP
1F00
0000
0400
0C00
0C00
1200
1200
2100
2100
2080
4080
4040
8040
FFE0
ENDCHAR
STARTCHAR 0101
ENCODING 257
SWIDTH 720 0
DWIDTH 12 0
BBX 10 14 1 0
BITMAP
1F00
0000
0400
0C00
0A00
1200
1200
2100
2100
3F00
4080
4080
8040
8040
ENDCHAR
STARTCHAR 0102
ENCODING 258
SWIDTH 720 0
DWIDTH 12 0
BBX 11 15 1 0
BITMAP
1100
0E00
0000
0400
0C00
0C00
1200
1200
2100
2100
2080
4080
4040
8040
FFE0
ENDCHAR
STARTCHAR 0103
ENCODING 259
SWIDTH 720 0
DWIDTH 12 0
BBX 10 15 1 0
BITMAP
1100
0E00
0000
0400
0C00
0A00
1200
1200
2100
2100
3F00
4080
4080
8040
8040
ENDCHAR
STARTCHAR 0104
ENCODING 260
SWIDTH 720 0
DWIDTH 12 0
BBX 11 16 1 -4
BITMAP
0400
0C00
0C00
1200
1200
2100
2100
2080
4080
4040
8040
FFE0
0040
0080
0080
0060
ENDCHAR
STARTCHAR 0105
ENCODING 261
SWIDTH 720 0
DWIDTH 12 0
BBX 10 16 1 -4
BITMAP
0400
0C00
0A00
1200
1200
2100
2100
3F00
4080
4080
8040
8040
0080
0080
0080
0040
ENDCHAR
STARTCHAR 0106
ENCODING 262
SWIDTH 720 0
DWIDTH 12 0
BBX 10 15 1 0
BITMAP
0200
0400
0800
1F00
3F80
7FC0
71C0
E1C0
E000
E000
E1C0
71C0
7FC0
3F80
1F00
ENDCHAR
STARTCHAR 0107
ENCODING 263
SWIDTH 720 0
DWIDTH 12 0
BBX 9 15 2 0
BITMAP
0400
0800
1000
3E00
4100
8080
8080
8000
8000
8000
8000
8080
8080
4100
3E00
ENDCHAR
STARTCHAR 0108
ENCODING 264
SWIDTH 720 0
DWIDTH 12 0
BBX 10 15 1 0
BITMAP
0C00
1200
1100
1F00
3F80
7FC0
71C0
E1C0
E000
E000
E1C0
71C0
7FC0
3F80
1F00
ENDCHAR
STARTCHAR 0109
ENCODING 265
SWIDTH 720 0
DWIDTH 12 0
BBX 9 15 2 0
BITMAP
1800
2400
2200
3E00
4100
8080
8080
8000
8000
8000
8000
8080
8080
4100
3E00
ENDCHAR
STARTCHAR 010A
ENCODING 266
SWIDTH 720 0
DWIDTH 12 0
BBX 10 16 1 0
BITMAP
0C00
0A00
0C00
0000
1F00
3F80
7FC0
71C0
E1C0
E000
E000
E1C0
71C0
7FC0
3F80
1F00
ENDCHAR
STARTCHAR 010B
ENCODING 267
SWIDTH 720 0
DWIDTH 12 0
BBX 9 16 2 0
BITMAP
1800
1400
1800
0000
3E00
4100
8080
8080
8000
8000
8000
8000
8080
8080
4100
3E00
ENDCHAR
STARTCHAR 010C
ENCODING 268
SWIDTH 720 0
DWIDTH 12 0
BBX 10 15 1 0
BITMAP
1300
0C00
0400
1F00
3F80
7FC0
71C0
E1C0
E000
E000
E1C0
71C0
7FC0
3F80
1F00
ENDCHAR
STARTCHAR 010D
ENCODING 269
SWIDTH 720 0
DWIDTH 12 0
BBX 9 15 2 0
BITMAP
2600
1800
0800
3E00
4100
8080
8080
8000
8000
8000
8000
8080
8080
4100
3E00
ENDCHAR
STARTCHAR 010E
ENCODING 270
SWIDTH 720 0
DWIDTH 12 0
BBX 9 15 2 0
BITMAP
2600
1800
0800
FC00
FF00
FF00
FF80
FF80
FF80
FF80
FF80
FF80
FF00
FF00
FC00
ENDCHAR
STARTCHAR 010F
ENCODING 271
SWIDTH 720 0
DWIDTH 12 0
BBX 9 16 2 0
BITMAP
2200
2400
1800
0000
FE00
8100
8080
8080
8080
8080
8080
8080
8080
8080
8100
FE00
ENDCHAR
STARTCHAR 0110
ENCODING 272
SWIDTH 720 0
DWIDTH 12 0
BBX 9 12 2 0
BITMAP
FC00
FF00
FF00
FF80
FF80
FF80
FF80
FF80
FF80
FF00
FF00
FC00
ENDCHAR
STARTCHAR 0111
ENCODING 273
SWIDTH 720 0
DWIDTH 12 0
BBX 11 12 0 0
BITMAP
3F00
2080
2040
2020
2020
2020
FC20
2020
2020
2040
2080
3F00
ENDCHAR
STARTCHAR 0112
ENCODING 274
SWIDTH 720 0
DWIDTH 12 0
BBX 8 14 2 0
BITMAP
3E
00
FF
FF
FF
E0
E0
FF
FF
FF
E0
FF
FF
FF
ENDCHAR
STARTCHAR 0113
ENCODING 275
SWIDTH 720 0
DWIDTH 12 0
BBX 8 14 2 0
BITMAP
3E
00
FF
80
80
80
80
FE
80
80
80
80
80
FF
ENDCHAR
STARTCHAR 0114
ENCODING 276
SWIDTH 720 0
DWIDTH 12 0
BBX 8 15 2 0
BITMAP
22
1C
00
FF
FF
FF
E0
E0
FF
FF
FF
E0
FF
FF
FF
ENDCHAR
STARTCHAR 0115
ENCODING 277
SWIDTH 720 0
DWIDTH 12 0
BBX 8 15 2 0
BITMAP
22
1C
00
FF
80
80
80
80
FE
80
80
80
80
80
FF
ENDCHAR
STARTCHAR 0116
ENCODING 278
SWIDTH 720 0
DWIDTH 12 0
BBX 8 16 2 0
BITMAP
18
14
18
00
FF
FF
FF
E0
E0
FF
FF
FF
E0
FF
FF
FF
ENDCHAR
STARTCHAR 0117
ENCODING 279
SWIDTH 720 0
DWIDTH 12 0
BBX 8 16 2 0
BITMAP
18
14
18
00
FF
80
80
80
80
FE
80
80
80
80
80
FF
ENDCHAR
STARTCHAR 0118
ENCODING 280
SWIDTH 720 0
DWIDTH 12 0
BBX 8 16 2 -4
BITMAP
FF
FF
FF
E0
E0
FF
FF
FF
E0
FF
FF
FF
02
02
02
01
ENDCHAR
STARTCHAR 0119
ENCODING 281
SWIDTH 720 0
DWIDTH 12 0
BBX 8 16 2 -4
BITMAP
FF
80
80
80
80
FE
80
80
80
80
80
FF
02
02
02
01
ENDCHAR
STARTCHAR 011A
ENCODING 282
SWIDTH 720 0
DWIDTH 12 0
BBX 8 15 2 0
BITMAP
26
18
08
FF
FF
FF
E0
E0
FF
FF
FF
E0
FF
FF
FF
ENDCHAR
STARTCHAR 011B
ENCODING 283
SWIDTH 720 0
DWIDTH 12 0
BBX 8 16 2 0
BITMAP
22
14
08
00
FF
80
80
80
80
FE
80
80
80
80
80
FF
ENDCHAR
STARTCHAR 011C
ENCODING 284
SWIDTH 720 0
DWIDTH 12 0
BBX 10 15 1 0
BITMAP
0C00
1200
1100
1F00
2080
4080
8040
8000
8000
87C0
8440
8440
4440
2480
1F00
ENDCHAR
STARTCHAR 011D
ENCODING 285
SWIDTH 720 0
DWIDTH 12 0
BBX 10 16 1 0
BITMAP
0400
0C00
1300
0000
1F00
2080
4080
8040
8000
8000
87C0
8040
8040
4040
20C0
1F40
ENDCHAR
STARTCHAR 011E
ENCODING 286
SWIDTH 720 0
DWIDTH 12 0
BBX 10 15 1 0
BITMAP
1100
0E00
0000
1F00
2080
4080
8040
8000
8000
87C0
8440
8440
4440
2480
1F00
ENDCHAR
STARTCHAR 011F
ENCODING 287
SWIDTH 720 0
DWIDTH 12 0
BBX 10 15 1 0
BITMAP
1100
0E00
0000
1F00
2080
4040
8040
8000
8000
87C0
8040
8040
4040
20C0
1F40
ENDCHAR
STARTCHAR 0120
ENCODING 288
SWIDTH 720 0
DWIDTH 12 0
BBX 10 16 1 0
BITMAP
0C00
0A00
0C00
0000
1F00
2080
4080
8040
8000
8000
87C0
8440
8440
4440
2480
1F00
ENDCHAR
STARTCHAR 0121
ENCODING 289
SWIDTH 720 0
DWIDTH 12 0
BBX 10 16 1 0
BITMAP
0C00
0A00
0C00
0000
1F00
2080
4080
8040
8000
8000
87C0
8040
8040
4040
20C0
1F40
ENDCHAR
STARTCHAR 0122
ENCODING 290
SWIDTH 720 0
DWIDTH 12 0
BBX 10 16 1 -4
BITMAP
1F00
2080
4080
8040
8000
8000
87C0
8440
8440
4440
2480
1F00
0000
0C00
0C00
0400
ENDCHAR
STARTCHAR 0123
ENCODING 291
SWIDTH 720 0
DWIDTH 12 0
BBX 10 16 1 -4
BITMAP
1F00
2080
4080
8040
8000
8000
87C0
8040
8040
4040
20C0
1F40
0000
0C00
0C00
0400
ENDCHAR
STARTCHAR 0124
ENCODING 292
SWIDTH 720 0
DWIDTH 12 0
BBX 9 15 2 0
BITMAP
1800
2400
2200
8080
8080
8080
E080
9880
8480
8280
8180
8180
8080
8080
8080
ENDCHAR
STARTCHAR 0125
ENCODING 293
SWIDTH 720 0
DWIDTH 12 0
BBX 9 16 2 0
BITMAP
0800
1400
2200
0000
8080
8080
8080
8080
8080
8080
FF80
8080
8080
8080
8080
8080
ENDCHAR
STARTCHAR 0126
ENCODING 294
SWIDTH 720 0
DWIDTH 12 0
BBX 9 12 2 0
BITMAP
8080
8080
FF80
E080
9880
8480
8280
8180
8180
8080
8080
8080
ENDCHAR
STARTCHAR 0127
ENCODING 295
SWIDTH 720 0
DWIDTH 12 0
BBX 9 12 2 0
BITMAP
8080
8080
8080
FF80
8080
8080
FF80
8080
8080
8080
8080
8080
ENDCHAR
STARTCHAR 0128
ENCODING 296
SWIDTH 720 0
DWIDTH 12 0
BBX 8 15 2 0
BITMAP
32
4C
00
FF
FF
FF
08
08
08
08
08
08
FF
FF
FF
ENDCHAR
STARTCHAR 0129
ENCODING 297
SWIDTH 720 0
DWIDTH 12 0
BBX 8 15 2 0
BITMAP
32
4C
00
FF
08
08
08
08
08
08
08
08
08
08
FF
ENDCHAR
STARTCHAR 012A
ENCODING 298
SWIDTH 720 0
DWIDTH 12 0
BBX 8 14 2 0
BITMAP
3E
00
FF
FF
FF
08
08
08
08
08
08
FF
FF
FF
ENDCHAR
STARTCHAR 012B
ENCODING 299
SWIDTH 720 0
DWIDTH 12 0
BBX 8 14 2 0
BITMAP
3E
00
FF
08
08
08
08
08
08
08
08
08
08
FF
ENDCHAR
STARTCHAR 012C
ENCODING 300
SWIDTH 720 0
DWIDTH 12 0
BBX 8 15 2 0
BITMAP
22
1C
00
FF
FF
FF
08
08
08
08
08
08
FF
FF
FF
ENDCHAR
STARTCHAR 012D
ENCODING 301
SWIDTH 720 0
DWIDTH 12 0
BBX 8 15 2 0
BITMAP
22
1C
00
FF
08
08
08
08
08
08
08
08
08
08
FF
ENDCHAR
STARTCHAR 012E
ENCODING 302
SWIDTH 720 0
DWIDTH 12 0
BBX 8 16 2 -4
BITMAP
FF
FF
FF
08
08
08
08
08
08
FF
FF
FF
02
02
02
01
ENDCHAR
STARTCHAR 012F
ENCODING 303
SWIDTH 720 0
DWIDTH 12 0
BBX 8 16 2 -4
BITMAP
FF
08
08
08
08
08
08
08
08
08
08
FF
02
02
02
01
ENDCHAR
STARTCHAR 0130
ENCODING 304
SWIDTH 720 0
DWIDTH 12 0
BBX 8 16 2 0
BITMAP
18
14
18
00
FF
FF
FF
08
08
08
08
08
08
FF
FF
FF
ENDCHAR
STARTCHAR 0131
ENCODING 305
SWIDTH 720 0
DWIDTH 12 0
BBX 8 12 2 0
BITMAP
FF
08
08
08
08
08
08
08
08
08
08
FF
ENDCHAR
STARTCHAR 0134
ENCODING 308
SWIDTH 720 0
DWIDTH 12 0
BBX 10 15 1 0
BITMAP
0300
0480
0880
1FC0
1FC0
1FC0
01C0
01C0
01C0
01C0
E1C0
F3C0
7F80
3F80
1E00
ENDCHAR
STARTCHAR 0135
ENCODING 309
SWIDTH 720 0
DWIDTH 12 0
BBX 10 16 1 0
BITMAP
0200
0500
0880
0000
0FC0
0040
0040
0040
0040
0040
0040
0040
8040
4080
6100
1E00
ENDCHAR
STARTCHAR 0136
ENCODING 310
SWIDTH 720 0
DWIDTH 12 0
BBX 9 16 2 -4
BITMAP
FF80
FF00
FE00
FC00
F800
F800
E800
C400
8200
8100
8100
FF80
0000
1800
1800
0800
ENDCHAR
STARTCHAR 0137
ENCODING 311
SWIDTH 720 0
DWIDTH 12 0
BBX 9 16 2 -4
BITMAP
8080
8100
8200
8400
8800
9800
A800
C400
8200
8100
8100
8080
0000
1800
1800
0800
ENDCHAR
STARTCHAR 0138
ENCODING 312
SWIDTH 720 0
DWIDTH 12 0
BBX 9 12 2 0
BITMAP
8080
8100
8200
8400
8800
9800
A800
C400
8200
8100
8100
8080
ENDCHAR
STARTCHAR 0139
ENCODING 313
SWIDTH 720 0
DWIDTH 12 0
BBX 10 15 1 0
BITMAP
2000
4000
8000
4000
4000
4000
4000
4000
4000
4000
4000
4000
7FC0
7FC0
7FC0
ENDCHAR
STARTCHAR 013A
ENCODING 314
SWIDTH 720 0
DWIDTH 12 0
BBX 10 15 1 0
BITMAP
3000
4000
8000
4000
4000
4000
4000
4000
4000
4000
4000
4000
4000
4000
3FC0
ENDCHAR
STARTCHAR 013B
ENCODING 315
SWIDTH 720 0
DWIDTH 12 0
BBX 9 16 2 -4
BITMAP
8000
8000
8000
8000
8000
8000
8000
8000
8000
FF80
FF80
FF80
0000
0C00
0C00
0800
ENDCHAR
STARTCHAR 013C
ENCODING 316
SWIDTH 720 0
DWIDTH 12 0
BBX 8 16 3 -4
BITMAP
80
80
80
80
80
80
80
80
80
80
80
FF
00
18
18
08
ENDCHAR
STARTCHAR 013D
ENCODING 317
SWIDTH 720 0
DWIDTH 12 0
BBX 9 12 2 0
BITMAP
8100
8100
8100
8200
8000
8000
8000
8000
8000
FF80
FF80
FF80
ENDCHAR
STARTCHAR 013E
ENCODING 318
SWIDTH 720 0
DWIDTH 12 0
BBX 8 12 3 0
BITMAP
88
88
90
90
80
80
80
80
80
80
80
FF
ENDCHAR
STARTCHAR 013F
ENCODING 319
SWIDTH 720 0
DWIDTH 12 0
BBX 9 12 2 0
BITMAP
8000
8000
8000
8000
8300
8380
8300
8000
8000
FF80
FF80
FF80
ENDCHAR
STARTCHAR 0140
ENCODING 320
SWIDTH 720 0
DWIDTH 12 0
BBX 8 12 3 0
BITMAP
80
80
80
80
86
87
86
80
80
80
80
FF
ENDCHAR
STARTCHAR 0141
ENCODING 321
SWIDTH 720 0
DWIDTH 12 0
BBX 11 12 0 0
BITMAP
2000
2000
2000
2000
2C00
3000
6000
A000
2000
3FE0
3FE0
3FE0
ENDCHAR
STARTCHAR 0142
ENCODING 322
SWIDTH 720 0
DWIDTH 12 0
BBX 11 12 0 0
BITMAP
2000
2000
2000
2000
2400
1800
2000
E000
2000
2000
2000
1FE0
ENDCHAR
STARTCHAR 0143
ENCODING 323
SWIDTH 720 0
DWIDTH 12 0
BBX 9 15 2 0
BITMAP
0400
0800
1000
8080
C080
E080
F080
F880
FC80
FE80
FF80
FF80
FF80
FF80
FF80
ENDCHAR
STARTCHAR 0144
ENCODING 324
SWIDTH 720 0
DWIDTH 12 0
BBX 9 15 2 0
BITMAP
0400
0800
1000
8080
C080
A080
9080
8880
8480
8280
8180
8080
8080
8080
8080
ENDCHAR
STARTCHAR 0145
ENCODING 325
SWIDTH 720 0
DWIDTH 12 0
BBX 9 16 2 -4
BITMAP
8080
C080
E080
F080
F880
FC80
FE80
FF80
FF80
FF80
FF80
FF80
0000
1800
1800
0800
ENDCHAR
STARTCHAR 0146
ENCODING 326
SWIDTH 720 0
DWIDTH 12 0
BBX 9 16 2 -4
BITMAP
8080
C080
A080
9080
8880
8480
8280
8180
8080
8080
8080
8080
0000
1800
1800
0800
ENDCHAR
STARTCHAR 0147
ENCODING 327
SWIDTH 720 0
DWIDTH 12 0
BBX 9 15 2 0
BITMAP
2600
1800
0800
8080
C080
E080
F080
F880
FC80
FE80
FF80
FF80
FF80
FF80
FF80
ENDCHAR
STARTCHAR 0148
ENCODING 328
SWIDTH 720 0
DWIDTH 12 0
BBX 9 15 2 0
BITMAP
2600
1800
0800
8080
C080
A080
9080
8880
8480
8280
8180
8080
8080
8080
8080
ENDCHAR
STARTCHAR 014A
ENCODING 330
SWIDTH 720 0
DWIDTH 12 0
BBX 9 14 2 -2
BITMAP
8080
C080
E080
F080
F880
FC80
FE80
FF80
FF80
FF80
FF80
FF80
0080
0100
ENDCHAR
STARTCHAR 014B
ENCODING 331
SWIDTH 720 0
DWIDTH 12 0
BBX 9 14 2 -2
BITMAP
8080
C080
A080
9080
8880
8480
8280
8180
8080
8080
8080
8080
0080
0100
ENDCHAR
STARTCHAR 014C
ENCODING 332
SWIDTH 720 0
DWIDTH 12 0
BBX 10 14 1 0
BITMAP
1F00
0000
1E00
3F80
7F80
F1C0
E1C0
E1C0
E1C0
E1C0
F3C0
7F80
3F80
1E00
ENDCHAR
STARTCHAR 014D
ENCODING 333
SWIDTH 720 0
DWIDTH 12 0
BBX 10 14 1 0
BITMAP
1F00
0000
1F00
2080
4040
8040
8040
8040
8040
8040
8040
4040
2080
1F00
ENDCHAR
STARTCHAR 014E
ENCODING 334
SWIDTH 720 0
DWIDTH 12 0
BBX 10 15 1 0
BITMAP
1100
0E00
0000
1E00
3F80
7F80
F1C0
E1C0
E1C0
E1C0
E1C0
F3C0
7F80
3F80
1E00
ENDCHAR
STARTCHAR 014F
ENCODING 335
SWIDTH 720 0
DWIDTH 12 0
BBX 10 15 1 0
BITMAP
1100
0E00
0000
1F00
2080
4040
8040
8040
8040
8040
8040
8040
4040
2080
1F00
ENDCHAR
STARTCHAR 0150
ENCODING 336
SWIDTH 720 0
DWIDTH 12 0
BBX 10 15 1 0
BITMAP
0900
1200
2200
1E00
3F80
7F80
F1C0
E1C0
E1C0
E1C0
E1C0
F3C0
7F80
3F80
1E00
ENDCHAR
STARTCHAR 0151
ENCODING 337
SWIDTH 720 0
DWIDTH 12 0
BBX 10 15 1 0
BITMAP
0900
1200
2200
1F00
2080
4040
8040
8040
8040
8040
8040
8040
4040
2080
1F00
ENDCHAR
STARTCHAR 0152
ENCODING 338
SWIDTH 720 0
DWIDTH 12 0
BBX 12 12 0 0
BITMAP
1FF0
3FF0
7FF0
7780
F780
E7E0
E7E0
F7E0
7780
7FF0
3FF0
1FF0
ENDCHAR
STARTCHAR 0153
ENCODING 339
SWIDTH 720 0
DWIDTH 12 0
BBX 10 12 1 0
BITMAP
1FC0
6400
4400
8400
8400
8780
8400
8400
8400
4400
4400
3FC0
ENDCHAR
STARTCHAR 0154
ENCODING 340
SWIDTH 720 0
DWIDTH 12 0
BBX 9 15 2 0
BITMAP
0400
1800
1000
FE00
C100
A080
A080
9080
8880
8900
FE00
8200
8200
8100
FF80
ENDCHAR
STARTCHAR 0155
ENCODING 341
SWIDTH 720 0
DWIDTH 12 0
BBX 9 16 2 0
BITMAP
0400
0800
1000
0000
FE00
8100
8080
8080
8080
8080
8100
FE00
8200
8200
8100
8080
ENDCHAR
STARTCHAR 0156
ENCODING 342
SWIDTH 720 0
DWIDTH 12 0
BBX 9 16 2 -4
BITMAP
FE00
C100
A080
A080
9080
8880
8900
FE00
8200
8200
8100
FF80
0000
1800
1800
0800
ENDCHAR
STARTCHAR 0157
ENCODING 343
SWIDTH 720 0
DWIDTH 12 0
BBX 9 16 2 -4
BITMAP
FE00
8100
8080
8080
8080
8080
8100
FE00
8200
8200
8100
8080
0000
1800
1800
0800
ENDCHAR
STARTCHAR 0158
ENCODING 344
SWIDTH 720 0
DWIDTH 12 0
BBX 9 15 2 0
BITMAP
2600
1800
0800
FE00
C100
A080
A080
9080
8880
8900
FE00
8200
8200
8100
FF80
ENDCHAR
STARTCHAR 0159
ENCODING 345
SWIDTH 720 0
DWIDTH 12 0
BBX 9 16 2 0
BITMAP
2200
1400
0800
0000
FE00
8100
8080
8080
8080
8080
8100
FE00
8200
8200
8100
8080
ENDCHAR
STARTCHAR 015A
ENCODING 346
SWIDTH 720 0
DWIDTH 12 0
BBX 10 15 1 0
BITMAP
0200
0400
0800
1F00
7F80
7FC0
F1C0
7000
7F00
3FC0
E3C0
E1C0
7FC0
7F80
1F00
ENDCHAR
STARTCHAR 015B
ENCODING 347
SWIDTH 720 0
DWIDTH 12 0
BBX 9 15 2 0
BITMAP
0C00
1000
2000
3E00
4100
8100
8080
C000
3800
0600
0100
8080
8080
4100
3E00
ENDCHAR
STARTCHAR 015C
ENCODING 348
SWIDTH 720 0
DWIDTH 12 0
BBX 10 15 1 0
BITMAP
0C00
1200
1100
1F00
7F80
7FC0
F1C0
7000
7F00
3FC0
E3C0
E1C0
7FC0
7F80
1F00
ENDCHAR
STARTCHAR 015D
ENCODING 349
SWIDTH 720 0
DWIDTH 12 0
BBX 9 16 2 0
BITMAP
0800
1800
2600
0000
3E00
4100
8100
8080
C000
3800
0600
0100
8080
8080
4100
3E00
ENDCHAR
STARTCHAR 015E
ENCODING 350
SWIDTH 720 0
DWIDTH 12 0
BBX 10 15 1 -3
BITMAP
1F00
7F80
7FC0
71C0
7000
7F00
3FC0
03C0
E1C0
7FC0
7F80
3F00
0400
0800
0800
ENDCHAR
STARTCHAR 015F
ENCODING 351
SWIDTH 720 0
DWIDTH 12 0
BBX 9 15 2 -3
BITMAP
3E00
4100
8100
8080
8000
7000
0E00
0100
8080
8080
C100
3E00
0800
1000
1000
ENDCHAR
STARTCHAR 0160
ENCODING 352
SWIDTH 720 0
DWIDTH 12 0
BBX 10 15 1 0
BITMAP
1300
0C00
0400
1F00
7F80
7FC0
F1C0
7000
7F00
3FC0
E3C0
E1C0
7FC0
7F80
1F00
ENDCHAR
STARTCHAR 0161
ENCODING 353
SWIDTH 720 0
DWIDTH 12 0
BBX 9 16 2 0
BITMAP
2200
2400
1800
0000
3E00
4100
8100
8080
C000
3800
0600
0100
8080
8080
4100
3E00
ENDCHAR
STARTCHAR 0162
ENCODING 354
SWIDTH 720 0
DWIDTH 12 0
BBX 10 15 1 -3
BITMAP
FFC0
FFC0
FFC0
0400
0400
0400
0400
0400
0400
0400
0400
0400
0400
0400
0800
ENDCHAR
STARTCHAR 0163
ENCODING 355
SWIDTH 720 0
DWIDTH 12 0
BBX 10 15 1 -3
BITMAP
FFC0
0400
0400
0400
0400
0400
0400
0400
0400
0400
0400
0400
0400
0400
0800
ENDCHAR
STARTCHAR 0164
ENCODING 356
SWIDTH 720 0
DWIDTH 12 0
BBX 10 15 1 0
BITMAP
1300
0C00
0400
FFC0
FFC0
FFC0
0400
0400
0400
0400
0400
0400
0400
0400
0400
ENDCHAR
STARTCHAR 0165
ENCODING 357
SWIDTH 720 0
DWIDTH 12 0
BBX 10 16 1 0
BITMAP
1100
0A00
0400
0000
FFC0
0400
0400
0400
0400
0400
0400
0400
0400
0400
0400
0400
ENDCHAR
STARTCHAR 0166
ENCODING 358
SWIDTH 720 0
DWIDTH 12 0
BBX 10 12 1 0
BITMAP
FFC0
FFC0
FFC0
0400
0400
0400
0400
7F80
0400
0400
0400
0400
ENDCHAR
STARTCHAR 0167
ENCODING 359
SWIDTH 720 0
DWIDTH 12 0
BBX 10 12 1 0
BITMAP
FFC0
0400
0400
0400
0400
7F80
0400
0400
0400
0400
0400
0400
ENDCHAR
STARTCHAR 0168
ENCODING 360
SWIDTH 720 0
DWIDTH 12 0
BBX 10 15 1 0
BITMAP
1900
2600
0000
FFC0
FFC0
FFC0
FFC0
FFC0
FFC0
FFC0
FFC0
7FC0
7F80
3F80
1E00
ENDCHAR
STARTCHAR 0169
ENCODING 361
SWIDTH 720 0
DWIDTH 12 0
BBX 10 15 1 0
BITMAP
1900
2600
0000
8040
8040
8040
8040
8040
8040
8040
8040
8040
4080
2080
1F00
ENDCHAR
STARTCHAR 016A
ENCODING 362
SWIDTH 720 0
DWIDTH 12 0
BBX 10 14 1 0
BITMAP
1F00
0000
FFC0
FFC0
FFC0
FFC0
FFC0
FFC0
FFC0
FFC0
7FC0
7F80
3F80
1E00
ENDCHAR
STARTCHAR 016B
ENCODING 363
SWIDTH 720 0
DWIDTH 12 0
BBX 10 14 1 0
BITMAP
1F00
0000
8040
8040
8040
8040
8040
8040
8040
8040
8040
4080
2080
1F00
ENDCHAR
STARTCHAR 016C
ENCODING 364
SWIDTH 720 0
DWIDTH 12 0
BBX 10 15 1 0
BITMAP
1100
0E00
0000
FFC0
FFC0
FFC0
FFC0
FFC0
FFC0
FFC0
FFC0
7FC0
7F80
3F80
1E00
ENDCHAR
STARTCHAR 016D
ENCODING 365
SWIDTH 720 0
DWIDTH 12 0
BBX 10 15 1 0
BITMAP
1100
0E00
0000
8040
8040
8040
8040
8040
8040
8040
8040
8040
4080
2080
1F00
ENDCHAR
STARTCHAR 016E
ENCODING 366
SWIDTH 720 0
DWIDTH 12 0
BBX 10 16 1 0
BITMAP
0C00
1200
1200
0C00
FFC0
FFC0
FFC0
FFC0
FFC0
FFC0
FFC0
FFC0
7FC0
7F80
3F80
1E00
ENDCHAR
STARTCHAR 016F
ENCODING 367
SWIDTH 720 0
DWIDTH 12 0
BBX 10 17 1 0
BITMAP
0C00
1200
1200
0C00
0000
8040
8040
8040
8040
8040
8040
8040
8040
8040
4080
2080
1F00
ENDCHAR
STARTCHAR 0170
ENCODING 368
SWIDTH 720 0
DWIDTH 12 0
BBX 10 15 1 0
BITMAP
0900
1200
2200
FFC0
FFC0
FFC0
FFC0
FFC0
FFC0
FFC0
FFC0
7FC0
7F80
3F80
1E00
ENDCHAR
STARTCHAR 0171
ENCODING 369
SWIDTH 720 0
DWIDTH 12 0
BBX 10 16 1 0
BITMAP
0900
1100
2200
0000
8040
8040
8040
8040
8040
8040
8040
8040
8040
4080
2080
1F00
ENDCHAR
STARTCHAR 0172
ENCODING 370
SWIDTH 720 0
DWIDTH 12 0
BBX 10 16 1 -4
BITMAP
FFC0
FFC0
FFC0
FFC0
FFC0
FFC0
FFC0
FFC0
7FC0
7F80
3F80
1F00
0200
0200
0200
0100
ENDCHAR
STARTCHAR 0173
ENCODING 371
SWIDTH 720 0
DWIDTH 12 0
BBX 10 16 1 -4
BITMAP
8040
8040
8040
8040
8040
8040
8040
8040
8040
4040
2080
1F00
0200
0200
0200
0100
ENDCHAR
STARTCHAR 0174
ENCODING 372
SWIDTH 720 0
DWIDTH 12 0
BBX 11 15 1 0
BITMAP
0C00
1200
1100
8FE0
8840
8840
8440
4440
4C80
4C80
4A80
2A80
3300
3100
1100
ENDCHAR
STARTCHAR 0175
ENCODING 373
SWIDTH 720 0
DWIDTH 12 0
BBX 11 15 1 0
BITMAP
0C00
1200
1100
8820
8840
8840
8440
4440
4480
4C80
4A80
2A80
3300
3100
1100
ENDCHAR
STARTCHAR 0176
ENCODING 374
SWIDTH 720 0
DWIDTH 12 0
BBX 10 15 1 0
BITMAP
0C00
1200
1100
FFC0
7F80
3F00
1F00
1E00
0E00
0C00
0400
0400
0400
0400
0400
ENDCHAR
STARTCHAR 0177
ENCODING 375
SWIDTH 720 0
DWIDTH 12 0
BBX 10 15 1 0
BITMAP
0C00
1200
1100
C040
4080
2080
2100
1200
0A00
0C00
0400
0400
0400
0400
0400
ENDCHAR
STARTCHAR 0178
ENCODING 376
SWIDTH 720 0
DWIDTH 12 0
BBX 10 16 1 0
BITMAP
3300
2C80
3300
0000
FFC0
7F80
3F00
1F00
1E00
0E00
0C00
0400
0400
0400
0400
0400
ENDCHAR
STARTCHAR 0179
ENCODING 377
SWIDTH 720 0
DWIDTH 12 0
BBX 8 15 2 0
BITMAP
04
18
10
FF
01
03
05
05
09
11
11
21
41
81
FF
ENDCHAR
STARTCHAR 017A
ENCODING 378
SWIDTH 720 0
DWIDTH 12 0
BBX 8 15 2 0
BITMAP
04
18
10
FF
01
02
04
04
08
10
10
20
40
80
FF
ENDCHAR
STARTCHAR 017B
ENCODING 379
SWIDTH 720 0
DWIDTH 12 0
BBX 8 16 2 0
BITMAP
18
14
18
00
FF
01
03
05
05
09
11
11
21
41
81
FF
ENDCHAR
STARTCHAR 017C
ENCODING 380
SWIDTH 720 0
DWIDTH 12 0
BBX 8 16 2 0
BITMAP
18
14
18
00
FF
01
02
04
04
08
10
10
20
40
80
FF
ENDCHAR
STARTCHAR 017D
ENCODING 381
SWIDTH 720 0
DWIDTH 12 0
BBX 8 15 2 0
BITMAP
26
18
08
FF
01
03
05
05
09
11
11
21
41
81
FF
ENDCHAR
STARTCHAR 017E
ENCODING 382
SWIDTH 720 0
DWIDTH 12 0
BBX 8 15 2 0
BITMAP
26
18
08
FF
01
02
04
04
08
10
10
20
40
80
FF
ENDCHAR
STARTCHAR 018F
ENCODING 399
SWIDTH 720 0
DWIDTH 12 0
BBX 10 12 1 0
BITMAP
1E00
7F00
7F80
E3C0
01C0
FFC0
FFC0
E1C0
E3C0
FF80
7F00
3E00
ENDCHAR
STARTCHAR 0192
ENCODING 402
SWIDTH 720 0
DWIDTH 12 0
BBX 6 12 3 0
BITMAP
0C
10
10
10
10
7C
10
10
10
10
20
C0
ENDCHAR
STARTCHAR 01A0
ENCODING 416
SWIDTH 720 0
DWIDTH 12 0
BBX 10 15 1 0
BITMAP
0040
0040
0040
1E40
3F80
7F80
F1C0
E1C0
E1C0
E1C0
E1C0
F3C0
7F80
3F80
1E00
ENDCHAR
STARTCHAR 01A1
ENCODING 417
SWIDTH 720 0
DWIDTH 12 0
BBX 10 15 1 0
BITMAP
0040
0040
0040
1F40
2080
4080
8040
8040
8040
8040
8040
8040
4040
2080
1F00
ENDCHAR
STARTCHAR 01AF
ENCODING 431
SWIDTH 720 0
DWIDTH 12 0
BBX 11 15 1 0
BITMAP
0020
0020
0020
FFC0
FFC0
FFC0
FFC0
FFC0
FFC0
FFC0
FFC0
7FC0
7F80
3F80
1E00
ENDCHAR
STARTCHAR 01B0
ENCODING 432
SWIDTH 720 0
DWIDTH 12 0
BBX 11 15 1 0
BITMAP
0020
0020
0020
8040
8040
8040
8040
8040
8040
8040
8040
8040
4080
2080
1F00
ENDCHAR
STARTCHAR 01C4
ENCODING 452
SWIDTH 1500 0
DWIDTH 25 0
BBX 21 16 2 0
BITMAP
000220
000140
000080
000000
FC0FF8
FF0018
FF0018
FF8028
FF8048
FF8088
FF8088
FF8108
FF8208
FF0408
FF0408
FC0FF8
ENDCHAR
STARTCHAR 01C5
ENCODING 453
SWIDTH 1500 0
DWIDTH 25 0
BBX 21 16 2 0
BITMAP
000220
000140
000080
000000
FC0FF8
FF0010
FF0010
FF8020
FF8040
FF8080
FF8080
FF8100
FF8200
FF0400
FF0400
FC0FF8
ENDCHAR
STARTCHAR 01C6
ENCODING 454
SWIDTH 1500 0
DWIDTH 25 0
BBX 21 15 2 0
BITMAP
000220
000140
000080
FC0FF8
820010
810010
808020
808040
808080
808080
808100
808200
810400
820400
FC0FF8
ENDCHAR
STARTCHAR 01C7
ENCODING 455
SWIDTH 1500 0
DWIDTH 25 0
BBX 21 12 2 0
BITMAP
8001F8
8001F8
8001F8
800038
800038
800038
800038
800E38
800E38
FF8FF8
FF87F0
FF83E0
ENDCHAR
STARTCHAR 01C8
ENCODING 456
SWIDTH 1500 0
DWIDTH 25 0
BBX 21 12 2 0
BITMAP
8001F8
800008
800008
800008
800008
800008
800008
800008
800808
FF8808
FF8410
FF83E0
ENDCHAR
STARTCHAR 01C9
ENCODING 457
SWIDTH 1500 0
DWIDTH 25 0
BBX 20 12 3 0
BITMAP
8003F0
800010
800010
800010
800010
800010
800010
800010
801010
801010
800820
FF07C0
ENDCHAR
STARTCHAR 01CA
ENCODING 458
SWIDTH 1500 0
DWIDTH 25 0
BBX 21 12 2 0
BITMAP
8081F8
C081F8
E081F8
F08038
F88038
FC8038
FE8038
FF8E38
FF8E38
FF8FF8
FF87F0
FF83E0
ENDCHAR
STARTCHAR 01CB
ENCODING 459
SWIDTH 1500 0
DWIDTH 25 0
BBX 21 12 2 0
BITMAP
8081F8
C08008
E08008
F08008
F88008
FC8008
FE8008
FF8008
FF8808
FF8808
FF8410
FF83E0
ENDCHAR
STARTCHAR 01CC
ENCODING 460
SWIDTH 1500 0
DWIDTH 25 0
BBX 21 12 2 0
BITMAP
8081F8
C08008
A08008
908008
888008
848008
828008
818008
808808
808808
808410
8083E0
ENDCHAR
STARTCHAR 01E6
ENCODING 486
SWIDTH 720 0
DWIDTH 12 0
BBX 10 15 1 0
BITMAP
1300
0C00
0400
1F00
2080
4080
8040
8000
8000
87C0
8440
8440
4440
2480
1F00
ENDCHAR
STARTCHAR 01E7
ENCODING 487
SWIDTH 720 0
DWIDTH 12 0
BBX 10 16 1 0
BITMAP
1100
1200
0C00
0000
1F00
2080
4080
8040
8000
8000
87C0
8040
8040
4040
20C0
1F40
ENDCHAR
STARTCHAR 01EA
ENCODING 490
SWIDTH 720 0
DWIDTH 12 0
BBX 10 16 1 -4
BITMAP
1E00
3F80
7F80
F1C0
E1C0
E1C0
E1C0
E1C0
F3C0
7FC0
3F80
1F00
0200
0200
0200
0100
ENDCHAR
STARTCHAR 01EB
ENCODING 491
SWIDTH 720 0
DWIDTH 12 0
BBX 10 16 1 -4
BITMAP
1F00
2080
4040
8040
8040
8040
8040
8040
8040
4040
2080
1F00
0200
0200
0200
0100
ENDCHAR
STARTCHAR 01FA
ENCODING 506
SWIDTH 720 0
DWIDTH 12 0
BBX 11 19 1 0
BITMAP
0200
0C00
0800
0C00
1200
1200
0C00
0400
0C00
0C00
1200
1200
2100
2100
2080
4080
4040
8040
FFE0
ENDCHAR
STARTCHAR 01FB
ENCODING 507
SWIDTH 720 0
DWIDTH 12 0
BBX 10 19 1 0
BITMAP
0200
0C00
0800
0C00
1200
1200
0C00
0400
0C00
0A00
1200
1200
2100
2100
3F00
4080
4080
8040
8040
ENDCHAR
STARTCHAR 01FC
ENCODING 508
SWIDTH 720 0
DWIDTH 12 0
BBX 12 15 0 0
BITMAP
0040
0080
0100
07F0
0A00
0A00
0A00
1200
13E0
2200
3E00
4200
4200
4200
83F0
ENDCHAR
STARTCHAR 01FD
ENCODING 509
SWIDTH 720 0
DWIDTH 12 0
BBX 12 15 0 0
BITMAP
0040
0080
0100
07F0
0A00
0A00
0A00
1200
13E0
2200
3E00
4200
4200
4200
83F0
ENDCHAR
STARTCHAR 01FE
ENCODING 510
SWIDTH 720 0
DWIDTH 12 0
BBX 10 16 1 -1
BITMAP
0600
0800
1040
1E80
3F80
7F80
F3C0
E3C0
E5C0
E9C0
E9C0
F1C0
7F80
3F80
5E00
4000
ENDCHAR
STARTCHAR 01FF
ENCODING 511
SWIDTH 720 0
DWIDTH 12 0
BBX 10 16 1 -1
BITMAP
0600
0800
1040
1E80
2180
4180
8240
8240
8440
8840
8840
9040
6040
2080
5F00
4000
ENDCHAR
STARTCHAR 0200
ENCODING 512
SWIDTH 720 0
DWIDTH 12 0
BBX 11 15 1 0
BITMAP
2200
1100
0900
0400
0C00
0C00
1200
1200
2100
2100
2080
4080
4040
8040
FFE0
ENDCHAR
STARTCHAR 0201
ENCODING 513
SWIDTH 720 0
DWIDTH 12 0
BBX 10 16 1 0
BITMAP
2200
2200
1100
0000
0400
0C00
0A00
1200
1200
2100
2100
3F00
4080
4080
8040
8040
ENDCHAR
STARTCHAR 0202
ENCODING 514
SWIDTH 720 0
DWIDTH 12 0
BBX 11 15 1 0
BITMAP
0E00
1100
0000
0400
0C00
0C00
1200
1200
2100
2100
2080
4080
4040
8040
FFE0
ENDCHAR
STARTCHAR 0203
ENCODING 515
SWIDTH 720 0
DWIDTH 12 0
BBX 10 15 1 0
BITMAP
1E00
2100
0000
0400
0C00
0A00
1200
1200
2100
2100
3F00
4080
4080
8040
8040
ENDCHAR
STARTCHAR 0204
ENCODING 516
SWIDTH 720 0
DWIDTH 12 0
BBX 8 16 2 0
BITMAP
44
44
22
00
FF
FF
FF
E0
E0
FF
FF
FF
E0
FF
FF
FF
ENDCHAR
STARTCHAR 0205
ENCODING 517
SWIDTH 720 0
DWIDTH 12 0
BBX 8 16 2 0
BITMAP
44
24
22
00
FF
80
80
80
80
FE
80
80
80
80
80
FF
ENDCHAR
STARTCHAR 0206
ENCODING 518
SWIDTH 720 0
DWIDTH 12 0
BBX 8 15 2 0
BITMAP
1C
22
00
FF
FF
FF
E0
E0
FF
FF
FF
E0
FF
FF
FF
ENDCHAR
STARTCHAR 0207
ENCODING 519
SWIDTH 720 0
DWIDTH 12 0
BBX 8 15 2 0
BITMAP
1C
22
00
FF
80
80
80
80
FE
80
80
80
80
80
FF
ENDCHAR
STARTCHAR 0208
ENCODING 520
SWIDTH 720 0
DWIDTH 12 0
BBX 8 16 2 0
BITMAP
44
44
22
00
FF
FF
FF
08
08
08
08
08
08
FF
FF
FF
ENDCHAR
STARTCHAR 0209
ENCODING 521
SWIDTH 720 0
DWIDTH 12 0
BBX 8 16 2 0
BITMAP
44
44
22
00
FF
08
08
08
08
08
08
08
08
08
08
FF
ENDCHAR
STARTCHAR 020A
ENCODING 522
SWIDTH 720 0
DWIDTH 12 0
BBX 8 15 2 0
BITMAP
3C
42
00
FF
FF
FF
08
08
08
08
08
08
FF
FF
FF
ENDCHAR
STARTCHAR 020B
ENCODING 523
SWIDTH 720 0
DWIDTH 12 0
BBX 8 15 2 0
BITMAP
1C
22
00
FF
08
08
08
08
08
08
08
08
08
08
FF
ENDCHAR
STARTCHAR 020C
ENCODING 524
SWIDTH 720 0
DWIDTH 12 0
BBX 10 15 1 0
BITMAP
2200
1100
0900
1E00
3F80
7F80
F1C0
E1C0
E1C0
E1C0
E1C0
F3C0
7F80
3F80
1E00
ENDCHAR
STARTCHAR 020D
ENCODING 525
SWIDTH 720 0
DWIDTH 12 0
BBX 10 15 1 0
BITMAP
2200
1100
0900
1F00
2080
4040
8040
8040
8040
8040
8040
8040
4040
2080
1F00
ENDCHAR
STARTCHAR 020E
ENCODING 526
SWIDTH 720 0
DWIDTH 12 0
BBX 10 16 1 0
BITMAP
0400
1E00
1100
0000
1E00
3F80
7F80
F1C0
E1C0
E1C0
E1C0
E1C0
F3C0
7F80
3F80
1E00
ENDCHAR
STARTCHAR 020F
ENCODING 527
SWIDTH 720 0
DWIDTH 12 0
BBX 10 16 1 0
BITMAP
0400
1E00
2100
0000
1F00
2080
4040
8040
8040
8040
8040
8040
8040
4040
2080
1F00
ENDCHAR
STARTCHAR 0210
ENCODING 528
SWIDTH 720 0
DWIDTH 12 0
BBX 9 16 2 0
BITMAP
4400
4400
2200
0000
FE00
C100
A080
A080
9080
8880
8900
FE00
8200
8200
8100
FF80
ENDCHAR
STARTCHAR 0211
ENCODING 529
SWIDTH 720 0
DWIDTH 12 0
BBX 9 16 2 0
BITMAP
4400
4400
2200
0000
FE00
8100
8080
8080
8080
8080
8100
FE00
8200
8200
8100
8080
ENDCHAR
STARTCHAR 0212
ENCODING 530
SWIDTH 720 0
DWIDTH 12 0
BBX 9 15 2 0
BITMAP
3C00
4200
0000
FE00
C100
A080
A080
9080
8880
8900
FE00
8200
8200
8100
FF80
ENDCHAR
STARTCHAR 0213
ENCODING 531
SWIDTH 720 0
DWIDTH 12 0
BBX 9 15 2 0
BITMAP
1C00
2200
0000
FE00
8100
8080
8080
8080
8080
8100
FE00
8200
8200
8100
8080
ENDCHAR
STARTCHAR 0214
ENCODING 532
SWIDTH 720 0
DWIDTH 12 0
BBX 10 16 1 0
BITMAP
2200
2200
1100
0000
FFC0
FFC0
FFC0
FFC0
FFC0
FFC0
FFC0
FFC0
7FC0
7F80
3F80
1E00
ENDCHAR
STARTCHAR 0215
ENCODING 533
SWIDTH 720 0
DWIDTH 12 0
BBX 10 16 1 0
BITMAP
2200
2200
1100
0000
8040
8040
8040
8040
8040
8040
8040
8040
8040
4080
2080
1F00
ENDCHAR
STARTCHAR 0216
ENCODING 534
SWIDTH 720 0
DWIDTH 12 0
BBX 10 16 1 0
BITMAP
0400
1E00
2100
0000
FFC0
FFC0
FFC0
FFC0
FFC0
FFC0
FFC0
FFC0
7FC0
7F80
3F80
1E00
ENDCHAR
STARTCHAR 0217
ENCODING 535
SWIDTH 720 0
DWIDTH 12 0
BBX 10 16 1 0
BITMAP
0400
1E00
2100
0000
8040
8040
8040
8040
8040
8040
8040
8040
8040
4080
2080
1F00
ENDCHAR
STARTCHAR 0218
ENCODING 536
SWIDTH 720 0
DWIDTH 12 0
BBX 10 16 1 -4
BITMAP
1F00
7F80
7FC0
71C0
7000
7F00
1FC0
E3C0
E1C0
7FC0
7F80
1F00
0000
0C00
0C00
0400
ENDCHAR
STARTCHAR 0219
ENCODING 537
SWIDTH 720 0
DWIDTH 12 0
BBX 9 16 2 -4
BITMAP
3E00
4100
8100
8080
C000
3800
0600
0100
8080
8080
4100
3E00
0000
1800
1800
0800
ENDCHAR
STARTCHAR 021A
ENCODING 538
SWIDTH 720 0
DWIDTH 12 0
BBX 10 16 1 -4
BITMAP
FFC0
FFC0
FFC0
0400
0400
0400
0400
0400
0400
0400
0400
0400
0000
0C00
0C00
0400
ENDCHAR
STARTCHAR 021B
ENCODING 539
SWIDTH 720 0
DWIDTH 12 0
BBX 10 16 1 -4
BITMAP
FFC0
0400
0400
0400
0400
0400
0400
0400
0400
0400
0400
0400
0000
0C00
0C00
0400
ENDCHAR
STARTCHAR 022A
ENCODING 554
SWIDTH 720 0
DWIDTH 12 0
BBX 10 18 1 0
BITMAP
1F00
0000
3300
2C80
3300
0000
1E00
3F80
7F80
F1C0
E1C0
E1C0
E1C0
E1C0
F3C0
7F80
3F80
1E00
ENDCHAR
STARTCHAR 022B
ENCODING 555
SWIDTH 720 0
DWIDTH 12 0
BBX 10 18 1 0
BITMAP
1F00
0000
3300
2C80
3300
0000
1F00
2080
4040
8040
8040
8040
8040
8040
8040
4040
2080
1F00
ENDCHAR
STARTCHAR 022C
ENCODING 556
SWIDTH 720 0
DWIDTH 12 0
BBX 10 18 1 0
BITMAP
1F00
0000
0000
1900
2600
0000
1E00
3F80
7F80
F1C0
E1C0
E1C0
E1C0
E1C0
F3C0
7F80
3F80
1E00
ENDCHAR
STARTCHAR 022D
ENCODING 557
SWIDTH 720 0
DWIDTH 12 0
BBX 10 18 1 0
BITMAP
1F00
0000
0000
1900
2600
0000
1F00
2080
4040
8040
8040
8040
8040
8040
8040
4040
2080
1F00
ENDCHAR
STARTCHAR 0230
ENCODING 560
SWIDTH 720 0
DWIDTH 12 0
BBX 10 18 1 0
BITMAP
1F00
0000
0C00
0A00
0C00
0000
1E00
3F80
7F80
F1C0
E1C0
E1C0
E1C0
E1C0
F3C0
7F80
3F80
1E00
ENDCHAR
STARTCHAR 0231
ENCODING 561
SWIDTH 720 0
DWIDTH 12 0
BBX 10 18 1 0
BITMAP
1F00
0000
0C00
0A00
0C00
0000
1F00
2080
4040
8040
8040
8040
8040
8040
8040
4040
2080
1F00
ENDCHAR
STARTCHAR 0232
ENCODING 562
SWIDTH 720 0
DWIDTH 12 0
BBX 10 14 1 0
BITMAP
1F00
0000
FFC0
7F80
3F00
1F00
1E00
0E00
0C00
0400
0400
0400
0400
0400
ENDCHAR
STARTCHAR 0233
ENCODING 563
SWIDTH 720 0
DWIDTH 12 0
BBX 10 14 1 0
BITMAP
1F00
0000
C040
4080
2080
2100
1200
0A00
0C00
0400
0400
0400
0400
0400
ENDCHAR
STARTCHAR 0237
ENCODING 567
SWIDTH 720 0
DWIDTH 12 0
BBX 10 12 1 0
BITMAP
0FC0
0040
0040
0040
0040
0040
0040
0040
8040
4080
6100
1E00
ENDCHAR
STARTCHAR 0259
ENCODING 601
SWIDTH 720 0
DWIDTH 12 0
BBX 9 12 2 0
BITMAP
7E00
8100
8080
8080
0080
FF80
8080
8080
8080
8100
4300
3C00
ENDCHAR
STARTCHAR 02B9
ENCODING 697
SWIDTH 720 0
DWIDTH 12 0
BBX 3 5 5 7
BITMAP
E0
C0
C0
C0
80
ENDCHAR
STARTCHAR 02BA
ENCODING 698
SWIDTH 720 0
DWIDTH 12 0
BBX 6 5 3 7
BITMAP
6C
6C
68
D8
D8
ENDCHAR
STARTCHAR 02BC
ENCODING 700
SWIDTH 720 0
DWIDTH 12 0
BBX 3 5 5 7
BITMAP
C0
E0
C0
40
80
ENDCHAR
STARTCHAR 02C6
ENCODING 710
SWIDTH 720 0
DWIDTH 12 0
BBX 5 3 4 12
BITMAP
60
90
88
ENDCHAR
STARTCHAR 02C7
ENCODING 711
SWIDTH 720 0
DWIDTH 12 0
BBX 5 3 4 12
BITMAP
98
60
20
ENDCHAR
STARTCHAR 02D8
ENCODING 728
SWIDTH 720 0
DWIDTH 12 0
BBX 5 2 4 13
BITMAP
88
70
ENDCHAR
STARTCHAR 02D9
ENCODING 729
SWIDTH 720 0
DWIDTH 12 0
BBX 3 3 5 13
BITMAP
C0
A0
C0
ENDCHAR
STARTCHAR 02DA
ENCODING 730
SWIDTH 720 0
DWIDTH 12 0
BBX 4 4 4 12
BITMAP
60
90
90
60
ENDCHAR
STARTCHAR 02DB
ENCODING 731
SWIDTH 720 0
DWIDTH 12 0
BBX 2 4 4 -4
BITMAP
40
80
80
40
ENDCHAR
STARTCHAR 02DC
ENCODING 732
SWIDTH 720 0
DWIDTH 12 0
BBX 6 2 3 13
BITMAP
64
98
ENDCHAR
STARTCHAR 02DD
ENCODING 733
SWIDTH 720 0
DWIDTH 12 0
BBX 7 3 3 12
BITMAP
26
44
88
ENDCHAR
STARTCHAR 0300
ENCODING 768
SWIDTH 0 0
DWIDTH 0 0
BBX 3 3 -8 12
BITMAP
C0
20
20
ENDCHAR
STARTCHAR 0301
ENCODING 769
SWIDTH 0 0
DWIDTH 0 0
BBX 3 3 -8 12
BITMAP
20
40
80
ENDCHAR
STARTCHAR 0302
ENCODING 770
SWIDTH 0 0
DWIDTH 0 0
BBX 5 3 -9 12
BITMAP
30
48
88
ENDCHAR
STARTCHAR 0303
ENCODING 771
SWIDTH 0 0
DWIDTH 0 0
BBX 6 2 -9 13
BITMAP
64
98
ENDCHAR
STARTCHAR 0304
ENCODING 772
SWIDTH 0 0
DWIDTH 0 0
BBX 5 1 -9 13
BITMAP
F8
ENDCHAR
STARTCHAR 0306
ENCODING 774
SWIDTH 0 0
DWIDTH 0 0
BBX 5 2 -9 13
BITMAP
88
70
ENDCHAR
STARTCHAR 0307
ENCODING 775
SWIDTH 0 0
DWIDTH 0 0
BBX 3 3 -8 13
BITMAP
60
A0
60
ENDCHAR
STARTCHAR 0308
ENCODING 776
SWIDTH 0 0
DWIDTH 0 0
BBX 6 3 -9 13
BITMAP
CC
B4
CC
ENDCHAR
STARTCHAR 0309
ENCODING 777
SWIDTH 0 0
DWIDTH 0 0
BBX 2 3 -7 13
BITMAP
C0
40
80
ENDCHAR
STARTCHAR 030A
ENCODING 778
SWIDTH 0 0
DWIDTH 0 0
BBX 4 4 -8 12
BITMAP
60
90
90
60
ENDCHAR
STARTCHAR 030B
ENCODING 779
SWIDTH 0 0
DWIDTH 0 0
BBX 6 3 -9 12
BITMAP
64
48
88
ENDCHAR
STARTCHAR 030C
ENCODING 780
SWIDTH 0 0
DWIDTH 0 0
BBX 5 3 -9 12
BITMAP
C8
30
20
ENDCHAR
STARTCHAR 030F
ENCODING 783
SWIDTH 0 0
DWIDTH 0 0
BBX 6 3 -9 12
BITMAP
98
48
44
ENDCHAR
STARTCHAR 0311
ENCODING 785
SWIDTH 0 0
DWIDTH 0 0
BBX 5 2 -9 13
BITMAP
70
88
ENDCHAR
STARTCHAR 031B
ENCODING 795
SWIDTH 0 0
DWIDTH 0 0
BBX 2 4 -7 11
BITMAP
40
40
40
80
ENDCHAR
STARTCHAR 0323
ENCODING 803
SWIDTH 0 0
DWIDTH 0 0
BBX 3 3 -8 -4
BITMAP
60
A0
60
ENDCHAR
STARTCHAR 0324
ENCODING 804
SWIDTH 0 0
DWIDTH 0 0
BBX 6 3 -9 -4
BITMAP
CC
B4
CC
ENDCHAR
STARTCHAR 0326
ENCODING 806
SWIDTH 0 0
DWIDTH 0 0
BBX 2 3 -7 -4
BITMAP
C0
C0
80
ENDCHAR
STARTCHAR 0327
ENCODING 807
SWIDTH 0 0
DWIDTH 0 0
BBX 2 3 -7 -3
BITMAP
40
80
80
ENDCHAR
STARTCHAR 0328
ENCODING 808
SWIDTH 0 0
DWIDTH 0 0
BBX 2 4 -8 -4
BITMAP
C0
80
80
40
ENDCHAR
STARTCHAR 032E
ENCODING 814
SWIDTH 0 0
DWIDTH 0 0
BBX 5 2 -9 -3
BITMAP
88
70
ENDCHAR
STARTCHAR 0331
ENCODING 817
SWIDTH 0 0
DWIDTH 0 0
BBX 5 1 -9 -3
BITMAP
F8
ENDCHAR
STARTCHAR 0335
ENCODING 821
SWIDTH 0 0
DWIDTH 0 0
BBX 6 1 -9 6
BITMAP
FC
ENDCHAR
STARTCHAR 0336
ENCODING 822
SWIDTH 0 0
DWIDTH 0 0
BBX 8 1 -10 6
BITMAP
FF
ENDCHAR
STARTCHAR 0337
ENCODING 823
SWIDTH 0 0
DWIDTH 0 0
BBX 6 4 -9 4
BITMAP
04
18
60
80
ENDCHAR
STARTCHAR 0338
ENCODING 824
SWIDTH 0 0
DWIDTH 0 0
BBX 9 13 -11 -1
BITMAP
0080
0100
0100
0200
0400
0400
0800
1000
1000
2000
4000
4000
8000
ENDCHAR
STARTCHAR 1E80
ENCODING 7808
SWIDTH 720 0
DWIDTH 12 0
BBX 11 15 1 0
BITMAP
1800
0400
0200
8FE0
8840
8840
8440
4440
4C80
4C80
4A80
2A80
3300
3100
1100
ENDCHAR
STARTCHAR 1E81
ENCODING 7809
SWIDTH 720 0
DWIDTH 12 0
BBX 11 15 1 0
BITMAP
1800
0400
0200
8820
8840
8840
8440
4440
4480
4C80
4A80
2A80
3300
3100
1100
ENDCHAR
STARTCHAR 1E82
ENCODING 7810
SWIDTH 720 0
DWIDTH 12 0
BBX 11 15 1 0
BITMAP
0200
0C00
0800
8FE0
8840
8840
8440
4440
4C80
4C80
4A80
2A80
3300
3100
1100
ENDCHAR
STARTCHAR 1E83
ENCODING 7811
SWIDTH 720 0
DWIDTH 12 0
BBX 11 15 1 0
BITMAP
0200
0C00
0800
8820
8840
8840
8440
4440
4480
4C80
4A80
2A80
3300
3100
1100
ENDCHAR
STARTCHAR 1E84
ENCODING 7812
SWIDTH 720 0
DWIDTH 12 0
BBX 11 16 1 0
BITMAP
3300
2C80
3300
0000
8FE0
8840
8840
8440
4440
4C80
4C80
4A80
2A80
3300
3100
1100
ENDCHAR
STARTCHAR 1E85
ENCODING 7813
SWIDTH 720 0
DWIDTH 12 0
BBX 11 16 1 0
BITMAP
3300
2C80
3300
0000
8820
8840
8840
8440
4440
4480
4C80
4A80
2A80
3300
3100
1100
ENDCHAR
STARTCHAR 1E9E
ENCODING 7838
SWIDTH 720 0
DWIDTH 12 0
BBX 9 12 2 0
BITMAP
FF00
8100
8200
8400
8E00
8100
8080
8080
8080
8080
8100
9E00
ENDCHAR
STARTCHAR 1EA0
ENCODING 7840
SWIDTH 720 0
DWIDTH 12 0
BBX 11 16 1 -4
BITMAP
0400
0C00
0C00
1200
1200
2100
2100
2080
4080
4040
8040
FFE0
0000
0C00
0A00
0C00
ENDCHAR
STARTCHAR 1EA1
ENCODING 7841
SWIDTH 720 0
DWIDTH 12 0
BBX 10 16 1 -4
BITMAP
0400
0C00
0A00
1200
1200
2100
2100
3F00
4080
4080
8040
8040
0000
0C00
0A00
0C00
ENDCHAR
STARTCHAR 1EA2
ENCODING 7842
SWIDTH 720 0
DWIDTH 12 0
BBX 11 16 1 0
BITMAP
0400
0400
0400
0000
0400
0C00
0A00
1200
1200
2100
2100
2080
4080
4040
8040
FFE0
ENDCHAR
STARTCHAR 1EA3
ENCODING 7843
SWIDTH 720 0
DWIDTH 12 0
BBX 10 16 1 0
BITMAP
0400
0400
0800
0000
0400
0C00
0A00
1200
1200
2100
2100
3F00
4080
4080
8040
8040
ENDCHAR
STARTCHAR 1EA4
ENCODING 7844
SWIDTH 720 0
DWIDTH 12 0
BBX 11 19 1 0
BITMAP
0200
0400
0800
0400
0C00
1300
0000
0400
0C00
0C00
1200
1200
2100
2100
2080
4080
4040
8040
FFE0
ENDCHAR
STARTCHAR 1EA5
ENCODING 7845
SWIDTH 720 0
DWIDTH 12 0
BBX 10 19 1 0
BITMAP
0200
0400
0800
0400
0A00
1100
0000
0400
0C00
0A00
1200
1200
2100
2100
3F00
4080
4080
8040
8040
ENDCHAR
STARTCHAR 1EA6
ENCODING 7846
SWIDTH 720 0
DWIDTH 12 0
BBX 11 19 1 0
BITMAP
1800
0800
0600
0400
0C00
1300
0000
0400
0C00
0C00
1200
1200
2100
2100
2080
4080
4040
8040
FFE0
ENDCHAR
STARTCHAR 1EA7
ENCODING 7847
SWIDTH 720 0
DWIDTH 12 0
BBX 10 19 1 0
BITMAP
1800
0400
0200
0400
0A00
1100
0000
0400
0C00
0A00
1200
1200
2100
2100
3F00
4080
4080
8040
8040
ENDCHAR
STARTCHAR 1EA8
ENCODING 7848
SWIDTH 720 0
DWIDTH 12 0
BBX 11 19 1 0
BITMAP
0400
0400
0400
0400
0C00
1300
0000
0400
0C00
0C00
1200
1200
2100
2100
2080
4080
4040
8040
FFE0
ENDCHAR
STARTCHAR 1EA9
ENCODING 7849
SWIDTH 720 0
DWIDTH 12 0
BBX 10 19 1 0
BITMAP
0400
0400
0400
0400
0C00
1300
0000
0400
0C00
0A00
1200
1200
2100
2100
3F00
4080
4080
8040
8040
ENDCHAR
STARTCHAR 1EAA
ENCODING 7850
SWIDTH 720 0
DWIDTH 12 0
BBX 11 18 1 0
BITMAP
1900
2600
0000
0C00
1200
1100
0400
0400
0C00
0A00
1200
1100
2100
2080
4080
4040
8040
FFE0
ENDCHAR
STARTCHAR 1EAB
ENCODING 7851
SWIDTH 720 0
DWIDTH 12 0
BBX 10 18 1 0
BITMAP
1900
2600
0000
0C00
1300
0000
0400
0C00
0A00
1200
1200
2100
2100
3F00
4080
4080
8040
8040
ENDCHAR
STARTCHAR 1EAC
ENCODING 7852
SWIDTH 720 0
DWIDTH 12 0
BBX 11 20 1 -4
BITMAP
0400
0C00
1300
0000
0400
0C00
0C00
1200
1200
2100
2100
2080
4080
4040
8040
FFE0
0000
0C00
0A00
0C00
ENDCHAR
STARTCHAR 1EAD
ENCODING 7853
SWIDTH 720 0
DWIDTH 12 0
BBX 10 20 1 -4
BITMAP
0400
0A00
1100
0000
0400
0C00
0A00
1200
1200
2100
2100
3F00
4080
4080
8040
8040
0000
0C00
0A00
0C00
ENDCHAR
STARTCHAR 1EAE
ENCODING 7854
SWIDTH 720 0
DWIDTH 12 0
BBX 11 19 1 0
BITMAP
0200
0400
0800
0000
1100
0E00
0000
0400
0C00
0C00
1200
1200
2100
2100
2080
4080
4040
8040
FFE0
ENDCHAR
STARTCHAR 1EAF
ENCODING 7855
SWIDTH 720 0
DWIDTH 12 0
BBX 10 19 1 0
BITMAP
0200
0400
0800
0000
1100
0E00
0000
0400
0C00
0A00
1200
1200
2100
2100
3F00
4080
4080
8040
8040
ENDCHAR
STARTCHAR 1EB0
ENCODING 7856
SWIDTH 720 0
DWIDTH 12 0
BBX 11 19 1 0
BITMAP
1800
0C00
0200
0000
1100
0E00
0000
0400
0C00
0C00
1200
1200
2100
2100
2080
4080
4040
8040
FFE0
ENDCHAR
STARTCHAR 1EB1
ENCODING 7857
SWIDTH 720 0
DWIDTH 12 0
BBX 10 19 1 0
BITMAP
1800
0C00
0200
0000
1100
0E00
0000
0400
0C00
0A00
1200
1200
2100
2100
3F00
4080
4080
8040
8040
ENDCHAR
STARTCHAR 1EB2
ENCODING 7858
SWIDTH 720 0
DWIDTH 12 0
BBX 11 19 1 0
BITMAP
0400
0400
0400
0000
1100
0E00
0000
0400
0C00
0C00
1200
1200
2100
2100
2080
4080
4040
8040
FFE0
ENDCHAR
STARTCHAR 1EB3
ENCODING 7859
SWIDTH 720 0
DWIDTH 12 0
BBX 10 19 1 0
BITMAP
0400
0400
0400
0000
1100
0E00
0000
0400
0C00
0A00
1200
1200
2100
2100
3F00
4080
4080
8040
8040
ENDCHAR
STARTCHAR 1EB4
ENCODING 7860
SWIDTH 720 0
DWIDTH 12 0
BBX 11 18 1 0
BITMAP
1900
2600
0000
1100
0E00
0000
0400
0C00
0C00
1200
1200
2100
2100
2080
4080
4040
8040
FFE0
ENDCHAR
STARTCHAR 1EB5
ENCODING 7861
SWIDTH 720 0
DWIDTH 12 0
BBX 10 18 1 0
BITMAP
1900
2600
0000
1100
0E00
0000
0400
0C00
0A00
1200
1200
2100
2100
3F00
4080
4080
8040
8040
ENDCHAR
STARTCHAR 1EB6
ENCODING 7862
SWIDTH 720 0
DWIDTH 12 0
BBX 11 19 1 -4
BITMAP
1100
0E00
0000
0400
0C00
0C00
1200
1200
2100
2100
2080
4080
4040
8040
FFE0
0000
0C00
0A00
0C00
ENDCHAR
STARTCHAR 1EB7
ENCODING 7863
SWIDTH 720 0
DWIDTH 12 0
BBX 10 19 1 -4
BITMAP
1100
0E00
0000
0400
0C00
0A00
1200
1200
2100
2100
3F00
4080
4080
8040
8040
0000
0C00
0A00
0C00
ENDCHAR
STARTCHAR 1EB8
ENCODING 7864
SWIDTH 720 0
DWIDTH 12 0
BBX 8 16 2 -4
BITMAP
FF
FF
FF
E0
E0
FF
FF
FF
E0
FF
FF
FF
00
18
14
18
ENDCHAR
STARTCHAR 1EB9
ENCODING 7865
SWIDTH 720 0
DWIDTH 12 0
BBX 8 16 2 -4
BITMAP
FF
80
80
80
80
FE
80
80
80
80
80
FF
00
18
14
18
ENDCHAR
STARTCHAR 1EBA
ENCODING 7866
SWIDTH 720 0
DWIDTH 12 0
BBX 8 16 2 0
BITMAP
08
08
08
00
FF
FF
FF
E0
E0
FF
FF
FF
E0
FF
FF
FF
ENDCHAR
STARTCHAR 1EBB
ENCODING 7867
SWIDTH 720 0
DWIDTH 12 0
BBX 8 16 2 0
BITMAP
08
04
08
00
FF
80
80
80
80
FE
80
80
80
80
80
FF
ENDCHAR
STARTCHAR 1EBC
ENCODING 7868
SWIDTH 720 0
DWIDTH 12 0
BBX 8 15 2 0
BITMAP
32
4C
00
FF
FF
FF
E0
E0
FF
FF
FF
E0
FF
FF
FF
ENDCHAR
STARTCHAR 1EBD
ENCODING 7869
SWIDTH 720 0
DWIDTH 12 0
BBX 8 15 2 0
BITMAP
32
4C
00
FF
80
80
80
80
FE
80
80
80
80
80
FF
ENDCHAR
STARTCHAR 1EBE
ENCODING 7870
SWIDTH 720 0
DWIDTH 12 0
BBX 8 19 2 0
BITMAP
04
08
10
08
14
22
00
FF
FF
FF
E0
E0
FF
FF
FF
E0
FF
FF
FF
ENDCHAR
STARTCHAR 1EBF
ENCODING 7871
SWIDTH 720 0
DWIDTH 12 0
BBX 8 19 2 0
BITMAP
04
08
10
08
14
22
00
FF
80
80
80
80
FE
80
80
80
80
80
FF
ENDCHAR
STARTCHAR 1EC0
ENCODING 7872
SWIDTH 720 0
DWIDTH 12 0
BBX 8 19 2 0
BITMAP
30
08
04
08
14
22
00
FF
FF
FF
E0
E0
FF
FF
FF
E0
FF
FF
FF
ENDCHAR
STARTCHAR 1EC1
ENCODING 7873
SWIDTH 720 0
DWIDTH 12 0
BBX 8 19 2 0
BITMAP
10
08
04
08
14
22
00
FF
80
80
80
80
FE
80
80
80
80
80
FF
ENDCHAR
STARTCHAR 1EC2
ENCODING 7874
SWIDTH 720 0
DWIDTH 12 0
BBX 8 19 2 0
BITMAP
08
08
08
08
18
26
00
FF
FF
FF
E0
E0
FF
FF
FF
E0
FF
FF
FF
ENDCHAR
STARTCHAR 1EC3
ENCODING 7875
SWIDTH 720 0
DWIDTH 12 0
BBX 8 19 2 0
BITMAP
08
04
08
08
18
26
00
FF
80
80
80
80
FE
80
80
80
80
80
FF
ENDCHAR
STARTCHAR 1EC4
ENCODING 7876
SWIDTH 720 0
DWIDTH 12 0
BBX 8 18 2 0
BITMAP
32
4C
00
18
26
00
FF
FF
FF
E0
E0
FF
FF
FF
E0
FF
FF
FF
ENDCHAR
STARTCHAR 1EC5
ENCODING 7877
SWIDTH 720 0
DWIDTH 12 0
BBX 8 18 2 0
BITMAP
32
4C
00
18
26
00
FF
80
80
80
80
FE
80
80
80
80
80
FF
ENDCHAR
STARTCHAR 1EC6
ENCODING 7878
SWIDTH 720 0
DWIDTH 12 0
BBX 8 20 2 -4
BITMAP
08
14
22
00
FF
FF
FF
E0
E0
FF
FF
FF
E0
FF
FF
FF
00
18
14
18
ENDCHAR
STARTCHAR 1EC7
ENCODING 7879
SWIDTH 720 0
DWIDTH 12 0
BBX 8 12 2 0
BITMAP
FF
80
80
80
80
FE
80
80
80
80
80
FF
ENDCHAR
STARTCHAR 1EC8
ENCODING 7880
SWIDTH 720 0
DWIDTH 12 0
BBX 8 16 2 0
BITMAP
08
08
08
00
FF
FF
FF
08
08
08
08
08
08
FF
FF
FF
ENDCHAR
STARTCHAR 1EC9
ENCODING 7881
SWIDTH 720 0
DWIDTH 12 0
BBX 8 16 2 0
BITMAP
08
08
08
00
FF
08
08
08
08
08
08
08
08
08
08
FF
ENDCHAR
STARTCHAR 1ECA
ENCODING 7882
SWIDTH 720 0
DWIDTH 12 0
BBX 8 16 2 -4
BITMAP
FF
FF
FF
08
08
08
08
08
08
FF
FF
FF
00
18
14
18
ENDCHAR
STARTCHAR 1ECB
ENCODING 7883
SWIDTH 720 0
DWIDTH 12 0
BBX 8 16 2 -4
BITMAP
FF
08
08
08
08
08
08
08
08
08
08
FF
00
18
14
18
ENDCHAR
STARTCHAR 1ECC
ENCODING 7884
SWIDTH 720 0
DWIDTH 12 0
BBX 10 16 1 -4
BITMAP
1E00
3F80
7F80
F1C0
E1C0
E1C0
E1C0
E1C0
F3C0
7F80
3F80
1E00
0C00
0A00
0A00
0C00
ENDCHAR
STARTCHAR 1ECD
ENCODING 7885
SWIDTH 720 0
DWIDTH 12 0
BBX 10 16 1 -4
BITMAP
1F00
2080
4040
8040
8040
8040
8040
8040
8040
4040
2080
1F00
0C00
0A00
0A00
0C00
ENDCHAR
STARTCHAR 1ECE
ENCODING 7886
SWIDTH 720 0
DWIDTH 12 0
BBX 10 16 1 0
BITMAP
0400
0400
0400
0000
1E00
3F80
7F80
F1C0
E1C0
E1C0
E1C0
E1C0
F3C0
7F80
3F80
1E00
ENDCHAR
STARTCHAR 1ECF
ENCODING 7887
SWIDTH 720 0
DWIDTH 12 0
BBX 10 16 1 0
BITMAP
0400
0400
0400
0000
1F00
2080
4040
8040
8040
8040
8040
8040
8040
4040
2080
1F00
ENDCHAR
STARTCHAR 1ED0
ENCODING 7888
SWIDTH 720 0
DWIDTH 12 0
BBX 10 19 1 0
BITMAP
0200
0C00
0800
0000
0C00
1200
1100
1E00
3F80
7F80
F1C0
E1C0
E1C0
E1C0
E1C0
F3C0
7F80
3F80
1E00
ENDCHAR
STARTCHAR 1ED1
ENCODING 7889
SWIDTH 720 0
DWIDTH 12 0
BBX 10 19 1 0
BITMAP
0200
0400
0800
0400
0C00
1300
0000
1F00
2080
4040
8040
8040
8040
8040
8040
8040
4040
2080
1F00
ENDCHAR
STARTCHAR 1ED2
ENCODING 7890
SWIDTH 720 0
DWIDTH 12 0
BBX 10 19 1 0
BITMAP
1800
0400
0200
0000
0C00
1200
1100
1E00
3F80
7F80
F1C0
E1C0
E1C0
E1C0
E1C0
F3C0
7F80
3F80
1E00
ENDCHAR
STARTCHAR 1ED3
ENCODING 7891
SWIDTH 720 0
DWIDTH 12 0
BBX 10 19 1 0
BITMAP
1800
0800
0600
0400
0C00
1300
0000
1F00
2080
4040
8040
8040
8040
8040
8040
8040
4040
2080
1F00
ENDCHAR
STARTCHAR 1ED4
ENCODING 7892
SWIDTH 720 0
DWIDTH 12 0
BBX 10 19 1 0
BITMAP
0400
0400
0400
0400
0C00
1200
0100
1E00
3F80
7F80
F1C0
E1C0
E1C0
E1C0
E1C0
F3C0
7F80
3F80
1E00
ENDCHAR
STARTCHAR 1ED5
ENCODING 7893
SWIDTH 720 0
DWIDTH 12 0
BBX 10 19 1 0
BITMAP
0400
0400
0400
0400
0C00
1300
0000
1F00
2080
4040
8040
8040
8040
8040
8040
8040
4040
2080
1F00
ENDCHAR
STARTCHAR 1ED6
ENCODING 7894
SWIDTH 720 0
DWIDTH 12 0
BBX 10 19 1 0
BITMAP
1900
2600
0000
0000
0C00
1200
1100
1E00
3F80
7F80
F1C0
E1C0
E1C0
E1C0
E1C0
F3C0
7F80
3F80
1E00
ENDCHAR
STARTCHAR 1ED7
ENCODING 7895
SWIDTH 720 0
DWIDTH 12 0
BBX 10 18 1 0
BITMAP
3F00
0000
0400
0A00
1300
0000
1F00
2080
4040
8040
8040
8040
8040
8040
8040
4040
2080
1F00
ENDCHAR
STARTCHAR 1ED8
ENCODING 7896
SWIDTH 720 0
DWIDTH 12 0
BBX 10 19 1 -4
BITMAP
0C00
1200
0100
1E00
3F80
7F80
F1C0
E1C0
E1C0
E1C0
E1C0
F3C0
7F80
3F80
1E00
0C00
0A00
0A00
0C00
ENDCHAR
STARTCHAR 1ED9
ENCODING 7897
SWIDTH 720 0
DWIDTH 12 0
BBX 10 20 1 -4
BITMAP
0400
0C00
1300
0000
1F00
2080
4040
8040
8040
8040
8040
8040
8040
4040
2080
1F00
0C00
0A00
0A00
0C00
ENDCHAR
STARTCHAR 1EDA
ENCODING 7898
SWIDTH 720 0
DWIDTH 12 0
BBX 10 16 1 0
BITMAP
0200
0440
0840
0040
1E40
3F80
7F80
F1C0
E1C0
E1C0
E1C0
E1C0
F3C0
7F80
3F80
1E00
ENDCHAR
STARTCHAR 1EDB
ENCODING 7899
SWIDTH 720 0
DWIDTH 12 0
BBX 10 16 1 0
BITMAP
0200
0440
0840
0040
1F40
2080
4080
8040
8040
8040
8040
8040
8040
4040
2080
1F00
ENDCHAR
STARTCHAR 1EDC
ENCODING 7900
SWIDTH 720 0
DWIDTH 12 0
BBX 10 16 1 0
BITMAP
1800
0840
0440
0240
1E40
3F80
7F80
F1C0
E1C0
E1C0
E1C0
E1C0
F3C0
7F80
3F80
1E00
ENDCHAR
STARTCHAR 1EDD
ENCODING 7901
SWIDTH 720 0
DWIDTH 12 0
BBX 10 16 1 0
BITMAP
1800
0840
0640
0040
1F40
2080
4080
8040
8040
8040
8040
8040
8040
4040
2080
1F00
ENDCHAR
STARTCHAR 1EDE
ENCODING 7902
SWIDTH 720 0
DWIDTH 12 0
BBX 10 16 1 0
BITMAP
0400
0440
0440
0040
1E40
3F80
7F80
F1C0
E1C0
E1C0
E1C0
E1C0
F3C0
7F80
3F80
1E00
ENDCHAR
STARTCHAR 1EDF
ENCODING 7903
SWIDTH 720 0
DWIDTH 12 0
BBX 10 16 1 0
BITMAP
0400
0440
0440
0040
1F40
2080
4080
8040
8040
8040
8040
8040
8040
4040
2080
1F00
ENDCHAR
STARTCHAR 1EE0
ENCODING 7904
SWIDTH 720 0
DWIDTH 12 0
BBX 10 15 1 0
BITMAP
1940
2640
0040
1E40
3F80
7F80
F1C0
E1C0
E1C0
E1C0
E1C0
F3C0
7F80
3F80
1E00
ENDCHAR
STARTCHAR 1EE1
ENCODING 7905
SWIDTH 720 0
DWIDTH 12 0
BBX 10 15 1 0
BITMAP
1940
2640
0040
1F40
2080
4080
8040
8040
8040
8040
8040
8040
4040
2080
1F00
ENDCHAR
STARTCHAR 1EE2
ENCODING 7906
SWIDTH 720 0
DWIDTH 12 0
BBX 10 19 1 -4
BITMAP
0040
0040
0040
1E40
3F80
7F80
F1C0
E1C0
E1C0
E1C0
E1C0
F3C0
7F80
3F80
1E00
0C00
0A00
0A00
0C00
ENDCHAR
STARTCHAR 1EE3
ENCODING 7907
SWIDTH 720 0
DWIDTH 12 0
BBX 10 19 1 -4
BITMAP
0040
0040
0040
1F40
2080
4080
8040
8040
8040
8040
8040
8040
4040
2080
1F00
0C00
0A00
0A00
0C00
ENDCHAR
STARTCHAR 1EE4
ENCODING 7908
SWIDTH 720 0
DWIDTH 12 0
BBX 10 16 1 -4
BITMAP
FFC0
FFC0
FFC0
FFC0
FFC0
FFC0
FFC0
FFC0
7FC0
7F80
3F80
1E00
0C00
0A00
0A00
0C00
ENDCHAR
STARTCHAR 1EE5
ENCODING 7909
SWIDTH 720 0
DWIDTH 12 0
BBX 10 16 1 -4
BITMAP
8040
8040
8040
8040
8040
8040
8040
8040
8040
4080
2080
1F00
0C00
0A00
0A00
0C00
ENDCHAR
STARTCHAR 1EE6
ENCODING 7910
SWIDTH 720 0
DWIDTH 12 0
BBX 10 16 1 0
BITMAP
0400
0400
0400
0000
FFC0
FFC0
FFC0
FFC0
FFC0
FFC0
FFC0
FFC0
7FC0
7F80
3F80
1E00
ENDCHAR
STARTCHAR 1EE7
ENCODING 7911
SWIDTH 720 0
DWIDTH 12 0
BBX 10 16 1 0
BITMAP
0400
0400
0400
0000
8040
8040
8040
8040
8040
8040
8040
8040
8040
4080
2080
1F00
ENDCHAR
STARTCHAR 1EE8
ENCODING 7912
SWIDTH 720 0
DWIDTH 12 0
BBX 11 16 1 0
BITMAP
0200
0420
0820
0020
FFC0
FFC0
FFC0
FFC0
FFC0
FFC0
FFC0
FFC0
7FC0
7F80
3F80
1E00
ENDCHAR
STARTCHAR 1EE9
ENCODING 7913
SWIDTH 720 0
DWIDTH 12 0
BBX 11 16 1 0
BITMAP
0200
0420
0820
0020
8040
8040
8040
8040
8040
8040
8040
8040
8040
4080
2080
1F00
ENDCHAR
STARTCHAR 1EEA
ENCODING 7914
SWIDTH 720 0
DWIDTH 12 0
BBX 11 16 1 0
BITMAP
1800
0820
0620
0020
FFC0
FFC0
FFC0
FFC0
FFC0
FFC0
FFC0
FFC0
7FC0
7F80
3F80
1E00
ENDCHAR
STARTCHAR 1EEB
ENCODING 7915
SWIDTH 720 0
DWIDTH 12 0
BBX 11 16 1 0
BITMAP
1800
0820
0620
0020
8040
8040
8040
8040
8040
8040
8040
8040
8040
4080
2080
1F00
ENDCHAR
STARTCHAR 1EEC
ENCODING 7916
SWIDTH 720 0
DWIDTH 12 0
BBX 11 16 1 0
BITMAP
0400
0420
0420
0020
FFC0
FFC0
FFC0
FFC0
FFC0
FFC0
FFC0
FFC0
7FC0
7F80
3F80
1E00
ENDCHAR
STARTCHAR 1EED
ENCODING 7917
SWIDTH 720 0
DWIDTH 12 0
BBX 11 16 1 0
BITMAP
0400
0420
0420
0020
8040
8040
8040
8040
8040
8040
8040
8040
8040
4080
2080
1F00
ENDCHAR
STARTCHAR 1EEE
ENCODING 7918
SWIDTH 720 0
DWIDTH 12 0
BBX 11 15 1 0
BITMAP
1920
2620
0020
FFC0
FFC0
FFC0
FFC0
FFC0
FFC0
FFC0
FFC0
7FC0
7F80
3F80
1E00
ENDCHAR
STARTCHAR 1EEF
ENCODING 7919
SWIDTH 720 0
DWIDTH 12 0
BBX 11 15 1 0
BITMAP
1920
2620
0020
8040
8040
8040
8040
8040
8040
8040
8040
8040
4080
2080
1F00
ENDCHAR
STARTCHAR 1EF0
ENCODING 7920
SWIDTH 720 0
DWIDTH 12 0
BBX 11 19 1 -4
BITMAP
0020
0020
0020
FFC0
FFC0
FFC0
FFC0
FFC0
FFC0
FFC0
FFC0
7FC0
7F80
3F80
1E00
0C00
0A00
0A00
0C00
ENDCHAR
STARTCHAR 1EF1
ENCODING 7921
SWIDTH 720 0
DWIDTH 12 0
BBX 11 19 1 -4
BITMAP
0020
0020
0020
8040
8040
8040
8040
8040
8040
8040
8040
8040
4080
2080
1F00
0C00
0A00
0A00
0C00
ENDCHAR
STARTCHAR 1EF2
ENCODING 7922
SWIDTH 720 0
DWIDTH 12 0
BBX 10 15 1 0
BITMAP
1800
0400
0200
FFC0
7F80
3F00
1F00
1E00
0E00
0C00
0400
0400
0400
0400
0400
ENDCHAR
STARTCHAR 1EF3
ENCODING 7923
SWIDTH 720 0
DWIDTH 12 0
BBX 10 15 1 0
BITMAP
1800
0400
0200
C040
4080
2080
2100
1200
0A00
0C00
0400
0400
0400
0400
0400
ENDCHAR
STARTCHAR 1EF4
ENCODING 7924
SWIDTH 720 0
DWIDTH 12 0
BBX 10 16 1 -4
BITMAP
FFC0
7F80
3F00
1F00
1E00
0E00
0C00
0400
0400
0400
0400
0400
0000
0C00
0A00
0C00
ENDCHAR
STARTCHAR 1EF5
ENCODING 7925
SWIDTH 720 0
DWIDTH 12 0
BBX 10 16 1 -4
BITMAP
C040
4080
2080
2100
1200
0A00
0C00
0400
0400
0400
0400
0400
0000
0C00
0A00
0C00
ENDCHAR
STARTCHAR 1EF6
ENCODING 7926
SWIDTH 720 0
DWIDTH 12 0
BBX 10 16 1 0
BITMAP
0400
0400
0400
0000
FFC0
7F80
3F00
1F00
1E00
0E00
0C00
0400
0400
0400
0400
0400
ENDCHAR
STARTCHAR 1EF7
ENCODING 7927
SWIDTH 720 0
DWIDTH 12 0
BBX 10 16 1 0
BITMAP
0400
0400
0400
0000
C040
4080
2080
2100
1200
0A00
0C00
0400
0400
0400
0400
0400
ENDCHAR
STARTCHAR 1EF8
ENCODING 7928
SWIDTH 720 0
DWIDTH 12 0
BBX 10 15 1 0
BITMAP
1900
2600
0000
FFC0
7F80
3F00
1F00
1E00
0E00
0C00
0400
0400
0400
0400
0400
ENDCHAR
STARTCHAR 1EF9
ENCODING 7929
SWIDTH 720 0
DWIDTH 12 0
BBX 10 15 1 0
BITMAP
1900
2600
0000
C040
4080
2080
2100
1200
0A00
0C00
0400
0400
0400
0400
0400
ENDCHAR
STARTCHAR 2010
ENCODING 8208
SWIDTH 720 0
DWIDTH 12 0
BBX 6 1 3 5
BITMAP
FC
ENDCHAR
STARTCHAR 2013
ENCODING 8211
SWIDTH 720 0
DWIDTH 12 0
BBX 7 1 3 5
BITMAP
FE
ENDCHAR
STARTCHAR 2014
ENCODING 8212
SWIDTH 720 0
DWIDTH 12 0
BBX 9 1 2 5
BITMAP
FF80
ENDCHAR
STARTCHAR 2018
ENCODING 8216
SWIDTH 720 0
DWIDTH 12 0
BBX 3 5 5 7
BITMAP
40
80
C0
E0
C0
ENDCHAR
STARTCHAR 2019
ENCODING 8217
SWIDTH 720 0
DWIDTH 12 0
BBX 3 5 5 7
BITMAP
C0
E0
C0
40
80
ENDCHAR
STARTCHAR 201A
ENCODING 8218
SWIDTH 720 0
DWIDTH 12 0
BBX 3 5 5 -2
BITMAP
C0
E0
C0
40
80
ENDCHAR
STARTCHAR 201C
ENCODING 8220
SWIDTH 720 0
DWIDTH 12 0
BBX 7 5 3 7
BITMAP
44
88
CC
EE
CC
ENDCHAR
STARTCHAR 201D
ENCODING 8221
SWIDTH 720 0
DWIDTH 12 0
BBX 7 5 3 7
BITMAP
CC
EE
CC
44
88
ENDCHAR
STARTCHAR 201E
ENCODING 8222
SWIDTH 720 0
DWIDTH 12 0
BBX 7 5 3 -2
BITMAP
CC
EE
CC
44
88
ENDCHAR
STARTCHAR 2020
ENCODING 8224
SWIDTH 720 0
DWIDTH 12 0
BBX 6 15 3 -2
BITMAP
10
10
10
10
10
10
10
FC
10
10
10
10
10
10
10
ENDCHAR
STARTCHAR 2021
ENCODING 8225
SWIDTH 720 0
DWIDTH 12 0
BBX 7 14 3 -1
BITMAP
10
10
10
10
10
FE
10
10
FE
10
10
10
10
10
ENDCHAR
STARTCHAR 2022
ENCODING 8226
SWIDTH 720 0
DWIDTH 12 0
BBX 5 5 4 3
BITMAP
F0
F8
F8
F8
70
ENDCHAR
STARTCHAR 2026
ENCODING 8230
SWIDTH 720 0
DWIDTH 12 0
BBX 10 3 1 0
BITMAP
ECC0
EFC0
ECC0
ENDCHAR
STARTCHAR 2030
ENCODING 8240
SWIDTH 720 0
DWIDTH 12 0
BBX 10 12 1 0
BITMAP
3800
4800
4400
4800
3000
FFC0
0000
3300
4480
4440
4440
3B80
ENDCHAR
STARTCHAR 2032
ENCODING 8242
SWIDTH 720 0
DWIDTH 12 0
BBX 2 5 5 7
BITMAP
C0
C0
C0
C0
C0
ENDCHAR
STARTCHAR 2033
ENCODING 8243
SWIDTH 720 0
DWIDTH 12 0
BBX 4 5 4 7
BITMAP
D0
D0
D0
D0
D0
ENDCHAR
STARTCHAR 2039
ENCODING 8249
SWIDTH 720 0
DWIDTH 12 0
BBX 4 7 4 2
BITMAP
30
20
40
80
40
20
10
ENDCHAR
STARTCHAR 203A
ENCODING 8250
SWIDTH 720 0
DWIDTH 12 0
BBX 3 7 5 2
BITMAP
80
40
40
20
40
80
80
ENDCHAR
STARTCHAR 2044
ENCODING 8260
SWIDTH 720 0
DWIDTH 12 0
BBX 9 13 2 0
BITMAP
0080
0100
0200
0200
0400
0800
0800
1000
1000
2000
4000
4000
8000
ENDCHAR
STARTCHAR 2052
ENCODING 8274
SWIDTH 720 0
DWIDTH 12 0
BBX 8 10 2 1
BITMAP
E2
E4
64
08
08
10
10
27
27
27
ENDCHAR
STARTCHAR 2074
ENCODING 8308
SWIDTH 720 0
DWIDTH 12 0
BBX 4 6 4 6
BITMAP
20
60
60
A0
F0
20
ENDCHAR
STARTCHAR 20A1
ENCODING 8353
SWIDTH 720 0
DWIDTH 12 0
BBX 9 14 2 -1
BITMAP
0A00
3E00
4B00
9480
9480
9400
9400
9400
A800
A880
A880
6900
3E00
2800
ENDCHAR
STARTCHAR 20A3
ENCODING 8355
SWIDTH 720 0
DWIDTH 12 0
BBX 9 12 1 0
BITMAP
3F80
4000
4000
4000
4000
4000
3F00
4000
4000
FC00
4000
4000
ENDCHAR
STARTCHAR 20A4
ENCODING 8356
SWIDTH 720 0
DWIDTH 12 0
BBX 10 12 1 0
BITMAP
0F00
1080
2040
2040
2000
FE00
2000
FE00
2000
2040
2040
FF80
ENDCHAR
STARTCHAR 20A6
ENCODING 8358
SWIDTH 720 0
DWIDTH 12 0
BBX 12 12 0 0
BITMAP
6020
5020
4820
4420
C3F0
4120
40A0
FFF0
4020
4020
4020
4020
ENDCHAR
STARTCHAR 20A7
ENCODING 8359
SWIDTH 720 0
DWIDTH 12 0
BBX 11 12 1 0
BITMAP
7F00
4080
4080
4040
FFE0
4040
4080
4100
7E00
4000
4000
4000
ENDCHAR
STARTCHAR 20A9
ENCODING 8361
SWIDTH 720 0
DWIDTH 12 0
BBX 10 12 1 0
BITMAP
8040
8040
4040
4080
FFC0
4480
4C80
CAC0
2B00
3300
3300
1100
ENDCHAR
STARTCHAR 20AB
ENCODING 8363
SWIDTH 720 0
DWIDTH 12 0
BBX 8 12 2 0
BITMAP
02
0F
02
3A
46
82
82
82
46
3A
00
FE
ENDCHAR
STARTCHAR 20AC
ENCODING 8364
SWIDTH 720 0
DWIDTH 12 0
BBX 10 12 1 0
BITMAP
0F00
1080
2040
2000
FF00
2000
2000
FF00
2000
2040
1080
0F00
ENDCHAR
STARTCHAR 20AD
ENCODING 8365
SWIDTH 720 0
DWIDTH 12 0
BBX 10 12 1 0
BITMAP
4040
4080
4100
4200
4400
FFC0
4400
4200
4200
4100
4080
4040
ENDCHAR
STARTCHAR 20B1
ENCODING 8369
SWIDTH 720 0
DWIDTH 12 0
BBX 10 12 1 0
BITMAP
3E00
2100
2100
FFC0
2080
FFC0
2100
2100
3E00
2000
2000
2000
ENDCHAR
STARTCHAR 20B2
ENCODING 8370
SWIDTH 720 0
DWIDTH 12 0
BBX 10 15 1 -1
BITMAP
0400
0400
1F00
2480
4440
8440
8400
8400
87C0
8440
8440
4440
2480
1F00
0400
ENDCHAR
STARTCHAR 20B5
ENCODING 8373
SWIDTH 720 0
DWIDTH 12 0
BBX 10 15 1 -1
BITMAP
0400
0400
1F00
2480
4440
8440
8400
8400
8400
8400
8440
4440
2480
1F00
0400
ENDCHAR
STARTCHAR 20B9
ENCODING 8377
SWIDTH 720 0
DWIDTH 12 0
BBX 9 12 2 0
BITMAP
FF80
0400
0200
0200
FF00
0200
0400
F800
0800
0400
0200
0100
ENDCHAR
STARTCHAR 20BA
ENCODING 8378
SWIDTH 720 0
DWIDTH 12 0
BBX 8 12 2 0
BITMAP
20
20
26
38
E6
38
E0
20
21
21
22
3C
ENDCHAR
STARTCHAR 20BC
ENCODING 8380
SWIDTH 720 0
DWIDTH 12 0
BBX 9 12 2 0
BITMAP
0800
0800
3C00
4A00
8900
8880
8880
8880
8880
8880
8880
8880
ENDCHAR
STARTCHAR 20BD
ENCODING 8381
SWIDTH 720 0
DWIDTH 12 0
BBX 9 12 2 0
BITMAP
7E00
4100
4080
4080
4080
4080
4080
4100
FE00
F800
4000
4000
ENDCHAR
STARTCHAR 2116
ENCODING 8470
SWIDTH 720 0
DWIDTH 12 0
BBX 11 12 1 0
BITMAP
85C0
8620
C620
C620
A620
A5C0
97C0
8C00
8C00
8400
8400
8400
ENDCHAR
STARTCHAR 2122
ENCODING 8482
SWIDTH 720 0
DWIDTH 12 0
BBX 10 6 1 6
BITMAP
FA40
2240
25C0
2540
2440
2440
ENDCHAR
STARTCHAR 2190
ENCODING 8592
SWIDTH 720 0
DWIDTH 12 0
BBX 10 9 1 1
BITMAP
0800
1000
2000
4000
FFC0
4000
2000
1000
0800
ENDCHAR
STARTCHAR 2191
ENCODING 8593
SWIDTH 720 0
DWIDTH 12 0
BBX 9 10 2 2
BITMAP
0800
1400
2A00
4900
8880
0800
0800
0800
0800
0800
ENDCHAR
STARTCHAR 2192
ENCODING 8594
SWIDTH 720 0
DWIDTH 12 0
BBX 10 9 1 1
BITMAP
0400
0200
0100
0080
FFC0
0080
0100
0200
0400
ENDCHAR
STARTCHAR 2193
ENCODING 8595
SWIDTH 720 0
DWIDTH 12 0
BBX 9 10 2 0
BITMAP
0800
0800
0800
0800
0800
8880
4900
2A00
1400
0800
ENDCHAR
STARTCHAR 2196
ENCODING 8598
SWIDTH 720 0
DWIDTH 12 0
BBX 7 7 3 5
BITMAP
FC
80
C0
A0
90
88
06
ENDCHAR
STARTCHAR 2197
ENCODING 8599
SWIDTH 720 0
DWIDTH 12 0
BBX 8 7 2 5
BITMAP
7F
03
05
09
11
21
C0
ENDCHAR
STARTCHAR 2198
ENCODING 8600
SWIDTH 720 0
DWIDTH 12 0
BBX 7 8 3 0
BITMAP
80
82
42
22
12
0A
06
7E
ENDCHAR
STARTCHAR 2199
ENCODING 8601
SWIDTH 720 0
DWIDTH 12 0
BBX 7 8 3 0
BITMAP
02
84
88
90
90
A0
C0
FC
ENDCHAR
STARTCHAR 2212
ENCODING 8722
SWIDTH 720 0
DWIDTH 12 0
BBX 6 1 3 5
BITMAP
FC
ENDCHAR
STARTCHAR 2215
ENCODING 8725
SWIDTH 720 0
DWIDTH 12 0
BBX 8 12 2 0
BITMAP
01
01
02
04
04
08
10
10
20
40
40
80
ENDCHAR
STARTCHAR 2219
ENCODING 8729
SWIDTH 720 0
DWIDTH 12 0
BBX 5 5 4 3
BITMAP
F8
F8
F8
F8
F8
ENDCHAR
STARTCHAR 2248
ENCODING 8776
SWIDTH 720 0
DWIDTH 12 0
BBX 9 4 2 4
BITMAP
7180
8F00
7180
8F00
ENDCHAR
STARTCHAR 2260
ENCODING 8800
SWIDTH 720 0
DWIDTH 12 0
BBX 7 7 3 2
BITMAP
02
04
FE
10
FE
80
80
ENDCHAR
STARTCHAR 2264
ENCODING 8804
SWIDTH 720 0
DWIDTH 12 0
BBX 5 10 3 1
BITMAP
08
10
20
40
C0
20
10
08
00
F8
ENDCHAR
STARTCHAR 2265
ENCODING 8805
SWIDTH 720 0
DWIDTH 12 0
BBX 5 10 3 1
BITMAP
40
40
20
10
08
10
20
40
00
F8
ENDCHAR
STARTCHAR 27E8
ENCODING 10216
SWIDTH 720 0
DWIDTH 12 0
BBX 4 10 4 1
BITMAP
10
10
20
40
40
80
40
20
20
10
ENDCHAR
STARTCHAR 27E9
ENCODING 10217
SWIDTH 720 0
DWIDTH 12 0
BBX 4 10 4 1
BITMAP
80
40
40
20
10
10
20
20
40
80
ENDCHAR
STARTCHAR E902
ENCODING 59650
SWIDTH 720 0
DWIDTH 12 0
BBX 6 6 3 3
BITMAP
FC
8C
94
A4
C4
FC
ENDCHAR
STARTCHAR E903
ENCODING 59651
SWIDTH 720 0
DWIDTH 12 0
BBX 6 6 3 3
BITMAP
FC
CC
B4
B4
CC
FC
ENDCHAR
STARTCHAR E904
ENCODING 59652
SWIDTH 720 0
DWIDTH 12 0
BBX 6 6 3 3
BITMAP
FC
84
84
84
84
FC
ENDCHAR
STARTCHAR E907
ENCODING 59655
SWIDTH 720 0
DWIDTH 12 0
BBX 12 12 0 0
BITMAP
FFF0
8030
8050
8090
8110
8210
8410
8810
9010
A010
C010
FFF0
ENDCHAR
STARTCHAR E908
ENCODING 59656
SWIDTH 720 0
DWIDTH 12 0
BBX 6 6 3 3
BITMAP
78
84
84
84
84
7C
ENDCHAR
STARTCHAR E909
ENCODING 59657
SWIDTH 720 0
DWIDTH 12 0
BBX 6 8 3 2
BITMAP
78
C4
84
84
84
44
28
10
ENDCHAR
STARTCHAR F00D
ENCODING 61453
SWIDTH 720 0
DWIDTH 12 0
BBX 9 12 2 0
BITMAP
FF80
8100
8200
8400
8800
9800
A800
C400
8200
8100
8100
FF80
ENDCHAR
STARTCHAR FB00
ENCODING 64256
SWIDTH 1500 0
DWIDTH 25 0
BBX 21 12 2 0
BITMAP
FF87F8
800800
800800
800800
800800
800800
FE07F0
800800
800800
800800
800800
800800
ENDCHAR
STARTCHAR FB01
ENCODING 64257
SWIDTH 1500 0
DWIDTH 25 0
BBX 20 12 2 0
BITMAP
FF87F0
800080
800080
800080
800080
800080
FE0080
800080
800080
800080
800080
8007F0
ENDCHAR
STARTCHAR FB02
ENCODING 64258
SWIDTH 1500 0
DWIDTH 25 0
BBX 22 12 2 0
BITMAP
FF8400
800400
800400
800400
800400
800400
FE0400
800400
800400
800400
800400
8007FC
ENDCHAR
STARTCHAR FB03
ENCODING 64259
SWIDTH 2220 0
DWIDTH 37 0
BBX 33 12 2 0
BITMAP
FF87F87F80
8008000800
8008000800
8008000800
8008000800
8008000800
FE07F00800
8008000800
8008000800
8008000800
8008000800
8008007F80
ENDCHAR
STARTCHAR FB04
ENCODING 64260
SWIDTH 2220 0
DWIDTH 37 0
BBX 34 12 2 0
BITMAP
FF87F84000
8008004000
8008004000
8008004000
8008004000
8008004000
FE07F04000
8008004000
8008004000
8008004000
8008004000
8008007FC0
ENDCHAR
ENDFONT
